<?xml version="1.0" standalone="no"?>
<!DOCTYPE svg PUBLIC "-//W3C//DTD SVG 1.1//EN" "http://www.w3.org/Graphics/SVG/1.1/DTD/svg11.dtd" >
<svg xmlns="http://www.w3.org/2000/svg" xmlns:xlink="http://www.w3.org/1999/xlink" version="1.1">
<metadata>
Created by FontForge 20150102 at Tue Mar 10 20:11:36 2015
 By uniteet7
Copyright (c) 2010 by Ryoichi Tsunekawa. All rights reserved. Cyrillic by AA
</metadata>
<defs>
<font id="bebasneuecyrillic" horiz-adv-x="811" >
  <font-face 
    font-family="bebasneuecyrillic"
    font-weight="400"
    font-stretch="normal"
    units-per-em="2048"
    panose-1="2 0 5 6 0 0 0 2 0 4"
    ascent="1536"
    descent="-512"
    x-height="1434"
    cap-height="1434"
    bbox="-102 -397 2048 1839"
    underline-thickness="102"
    underline-position="-102"
    unicode-range="U+000D-25FC"
  />
<missing-glyph horiz-adv-x="748" 
d="M68 0v1365h544v-1365h-544zM136 68h408v1229h-408v-1229z" />
    <glyph glyph-name=".notdef" horiz-adv-x="748" 
d="M68 0v1365h544v-1365h-544zM136 68h408v1229h-408v-1229z" />
    <glyph glyph-name="glyph1" horiz-adv-x="2048" 
 />
    <glyph glyph-name="glyph1" horiz-adv-x="2048" 
 />
    <glyph glyph-name="uni000D" unicode="&#xd;" horiz-adv-x="317" 
 />
    <glyph glyph-name="space" unicode=" " horiz-adv-x="317" 
 />
    <glyph glyph-name="exclam" unicode="!" horiz-adv-x="389" 
d="M111 317l-29 519v598h225v-598l-28 -519h-168zM303 217v-217h-217v217h217z" />
    <glyph glyph-name="quotedbl" unicode="&#x22;" horiz-adv-x="665" 
d="M82 1434h217l-33 -422h-153zM367 1434h217l-33 -422h-154z" />
    <glyph glyph-name="numbersign" unicode="#" horiz-adv-x="839" 
d="M449 410h-134l-43 -410h-184l43 410h-100l16 159h100l39 375h-102l16 160h103l35 330h184l-35 -330h133l35 330h184l-34 -330h104l-16 -160h-105l-39 -375h105l-17 -159h-104l-43 -410h-184zM332 569h133l39 375h-133z" />
    <glyph glyph-name="dollar" unicode="$" 
d="M76 1069q0 145 59.5 234.5t177.5 115.5v107h185v-107q121 -25 181 -113.5t60 -236.5v-45h-213v59q0 78 -29.5 110t-82.5 32t-83 -32t-30 -110q0 -74 33 -127t82 -99t105.5 -90t105.5 -99.5t81.5 -128t32.5 -174.5q0 -147 -61.5 -237.5t-181.5 -115.5v-104h-185v104
q-123 25 -183 115t-60 238v98h213v-113q0 -78 31.5 -108.5t84.5 -30.5t85 30.5t32 108.5q0 74 -32.5 127t-82 99.5t-105.5 90.5t-105.5 99t-82 128t-32.5 175z" />
    <glyph glyph-name="percent" unicode="%" horiz-adv-x="1284" 
d="M213 733q0 -90 74 -90q35 0 54 21.5t19 68.5v492q0 47 -19 68.5t-54 21.5q-74 0 -74 -90v-492zM70 1214q0 111 55 170.5t162 59.5q106 0 161.5 -59.5t55.5 -170.5v-471q0 -111 -55.5 -170t-161.5 -59t-161.5 59.5t-55.5 169.5v471zM852 1434h133l-565 -1434h-133z
M924 203q0 -90 73 -90q35 0 54.5 21.5t19.5 68.5v491q0 47 -19.5 68.5t-54.5 21.5q-74 0 -73 -90v-491zM780 684q0 111 55.5 170t161.5 59t161.5 -59t55.5 -170v-471q0 -111 -55 -170t-162 -59q-106 0 -161.5 59t-55.5 170v471z" />
    <glyph glyph-name="ampersand" unicode="&#x26;" horiz-adv-x="847" 
d="M84 457q0 111 36 187.5t120 113.5q-156 66 -156 295v26q0 174 83 264.5t253 90.5h258v-205h-254q-53 0 -84 -31t-31 -108v-89q0 -86 36 -118.5t99 -32.5h99v160h225v-160h59v-205h-59v-471q0 -53 4 -93t21 -81h-230q-8 23 -12 44.5t-8 68.5q-59 -129 -209 -129
q-125 0 -187.5 84t-62.5 243v146zM309 330q0 -78 32 -110t85 -32q51 0 82 29t35 96v332h-86q-78 0 -113 -41t-35 -141v-133z" />
    <glyph glyph-name="quotesingle" unicode="'" horiz-adv-x="368" 
d="M76 1434h217l-33 -422h-154z" />
    <glyph glyph-name="parenleft" unicode="(" horiz-adv-x="514" 
d="M481 1434v-185h-55q-53 0 -78.5 -25.5t-25.5 -103.5v-807q0 -78 25.5 -103.5t78.5 -25.5h55v-184h-69q-84 0 -144.5 16.5t-98.5 54.5t-55.5 97t-17.5 145v807q0 86 17.5 145.5t55.5 97.5t98.5 54.5t144.5 16.5h69z" />
    <glyph glyph-name="parenright" unicode=")" horiz-adv-x="514" 
d="M102 1434q168 0 242 -71t74 -243v-807q0 -172 -74 -242.5t-242 -70.5h-69v184h55q53 0 79 26t26 103v807q0 78 -26 103.5t-79 25.5h-55v185h69z" />
    <glyph glyph-name="asterisk" unicode="*" 
d="M367 1096l-54 338h185l-54 -338l306 153l57 -174l-336 -57l240 -240l-148 -108l-157 303l-158 -303l-148 108l240 240l-336 57l57 174z" />
    <glyph glyph-name="plus" unicode="+" 
d="M739 516v-160h-667v160h254v164h-254v160h254v233h159v-233h254v-160h-254v-164h254z" />
    <glyph glyph-name="comma" unicode="," horiz-adv-x="380" 
d="M82 0v217h217v-194l-98 -228h-92l59 205h-86z" />
    <glyph glyph-name="hyphen" unicode="-" horiz-adv-x="552" 
d="M72 819h409v-205h-409v205z" />
    <glyph glyph-name="period" unicode="." horiz-adv-x="380" 
d="M299 217v-217h-217v217h217z" />
    <glyph glyph-name="slash" unicode="/" horiz-adv-x="780" 
d="M575 1434h195l-565 -1434h-195z" />
    <glyph glyph-name="zero" unicode="0" 
d="M289 330q0 -78 31.5 -110t85.5 -32q53 0 84.5 32t31.5 110v774q0 78 -31.5 109.5t-84.5 31.5t-85 -31.5t-32 -109.5v-774zM63 1090q0 174 88.5 267t254.5 93t254 -93t88 -267v-746q0 -174 -88.5 -267t-253.5 -93q-166 0 -254.5 93t-88.5 267v746z" />
    <glyph glyph-name="one" unicode="1" 
d="M221 1253q66 0 108 14.5t68.5 39t43 57.5t28.5 70h152v-1434h-226v1094h-174v159z" />
    <glyph glyph-name="two" unicode="2" 
d="M528 1081q0 96 -31.5 130t-84.5 34t-85 -31.5t-32 -109.5v-154h-213v140q0 174 85 267t251 93t251 -93t85 -267q0 -117 -36 -211.5t-89.5 -172t-114.5 -142t-110.5 -123t-78 -116t-18.5 -120.5h426v-205h-651v176q0 104 32.5 184t83 146.5t107.5 125t107.5 124t83 143.5
t32.5 182z" />
    <glyph glyph-name="three" unicode="3" 
d="M516 1081q0 96 -31.5 130t-85.5 34q-53 0 -84.5 -31.5t-31.5 -109.5v-92h-213v78q0 174 85 267t251 93t250.5 -93t84.5 -267v-37q0 -229 -157 -295q86 -37 121.5 -114t35.5 -187v-113q0 -174 -85 -267t-250 -93q-166 0 -251 93t-85 267v119h213v-133q0 -78 31.5 -110
t84.5 -32t85 33t32 129v113q0 100 -35 141t-112 41h-76v205h88q63 0 99 32.5t36 118.5v80z" />
    <glyph glyph-name="four" unicode="4" 
d="M29 465l409 969h246v-969h107v-205h-107v-260h-225v260h-430v205zM459 465v530l-223 -530h223z" />
    <glyph glyph-name="five" unicode="5" 
d="M285 463v-133q0 -78 31.5 -109t84.5 -31t85 31t32 109v315q0 78 -31.5 109.5t-85.5 31.5q-53 0 -84.5 -31.5t-31.5 -109.5v-43h-213l41 832h594v-205h-392l-18 -342q63 104 197 104q125 0 187 -84t62 -243v-320q0 -174 -85 -267t-250 -93q-166 0 -251 93t-85 267v119h213
z" />
    <glyph glyph-name="six" unicode="6" 
d="M68 1077q0 182 84 277.5t260 95.5q166 0 251 -93t85 -267v-37h-213v51q0 78 -32 109.5t-85 31.5q-59 0 -92 -37t-33 -139v-262q59 127 209 127q125 0 187.5 -84t62.5 -244v-262q0 -174 -88.5 -267t-253.5 -93q-166 0 -254 93t-88 267v733zM410 729q-53 0 -85 -31.5
t-32 -109.5v-258q0 -78 31.5 -109t85.5 -31q53 0 84.5 31t31.5 109v258q0 78 -31.5 109.5t-84.5 31.5z" />
    <glyph glyph-name="seven" unicode="7" 
d="M743 1434v-197l-331 -1237h-226l330 1229h-448v205h675z" />
    <glyph glyph-name="eight" unicode="8" 
d="M758 344q0 -174 -90 -267t-262 -93t-262.5 93t-90.5 267v113q0 104 33 181t107 118q-139 76 -140 288v46q0 174 90 267t263 93q172 0 262 -93t90 -267v-46q0 -211 -140 -288q74 -41 107 -118t33 -181v-113zM279 350q0 -96 36.5 -129t90.5 -33q53 0 88.5 33t37.5 129v133
q0 86 -33.5 124t-92.5 38t-93 -38t-34 -124v-133zM279 1001q0 -86 35.5 -118.5t91.5 -32.5q53 0 89.5 32.5t36.5 118.5v80q0 96 -36.5 130t-89.5 34t-90 -33.5t-37 -130.5v-80z" />
    <glyph glyph-name="nine" unicode="9" 
d="M743 356q0 -182 -84 -277t-260 -95q-166 0 -251 93t-85 267v37h213v-51q0 -78 32 -110t85 -32q59 0 92 37t33 140v262q-59 -127 -209 -127q-125 0 -187.5 84t-62.5 243v263q0 174 88.5 267t253.5 93q166 0 254 -93t88 -267v-734zM401 705q53 0 85 31.5t32 109.5v258
q0 78 -31.5 108.5t-85.5 30.5q-53 0 -84.5 -30.5t-31.5 -108.5v-258q0 -78 31.5 -109.5t84.5 -31.5z" />
    <glyph glyph-name="colon" unicode=":" horiz-adv-x="380" 
d="M299 217v-217h-217v217h217zM299 997v-217h-217v217h217z" />
    <glyph glyph-name="semicolon" unicode=";" horiz-adv-x="380" 
d="M82 0v217h217v-194l-98 -228h-92l59 205h-86zM299 997v-217h-217v217h217z" />
    <glyph glyph-name="less" unicode="&#x3c;" 
d="M61 637v160l668 245v-161l-459 -164l459 -164v-162z" />
    <glyph glyph-name="equal" unicode="=" 
d="M739 631v-160h-667v160h667zM739 963v-160h-667v160h667z" />
    <glyph glyph-name="greater" unicode="&#x3e;" 
d="M82 391v162l459 164l-459 164v161l668 -245v-160z" />
    <glyph glyph-name="question" unicode="?" horiz-adv-x="737" 
d="M246 317q-12 37 -13 89q0 78 18.5 135t45.5 105t59.5 92t59 95.5t45 116t18.5 154.5q0 78 -29.5 109.5t-82.5 31.5t-83 -31.5t-30 -109.5v-156h-213v142q0 174 83 267t249 93t249 -93t83 -267q0 -94 -19.5 -163t-49.5 -124t-64.5 -101.5t-64.5 -91.5t-49.5 -96
t-19.5 -117q0 -45 8 -80h-200zM453 217v-217h-217v217h217z" />
    <glyph glyph-name="at" unicode="@" horiz-adv-x="1411" 
d="M975 260q-78 0 -126 32t-54 103q-63 -129 -199 -123q-109 4 -155 85t-29 231l22 207q16 152 78.5 229.5t171.5 73.5q127 -2 168 -127l12 119h197l-62 -592q-6 -51 41 -52q43 0 74 43t51.5 111t29.5 149.5t9 159.5q0 96 -23.5 176t-73.5 136.5t-127 88t-183 31.5
q-137 0 -240.5 -53t-173.5 -151.5t-105.5 -238.5t-35.5 -314q0 -248 116.5 -391.5t360.5 -143.5q57 0 110.5 6t104.5 21.5t103.5 43t105.5 68.5l-17 -196q-102 -68 -203.5 -91.5t-215.5 -23.5q-172 0 -297 52.5t-205 147.5t-118 226t-38 291q0 190 47 357t141.5 293
t235.5 199t332 73q162 0 271.5 -47.5t175 -129.5t94 -191.5t28.5 -234.5q0 -188 -40 -314t-100 -201.5t-130 -106.5t-129 -31zM610 598q-8 -72 16.5 -102.5t71.5 -32.5t77 27.5t38 101.5l21 194q6 59 -21 87t-68 28q-47 2 -77.5 -27.5t-38.5 -101.5z" />
    <glyph glyph-name="A" unicode="A" horiz-adv-x="833" 
d="M811 0h-227l-39 260h-277l-39 -260h-206l229 1434h330zM297 455h217l-108 725z" />
    <glyph glyph-name="B" unicode="B" horiz-adv-x="831" 
d="M422 1434q176 0 255 -82t79 -248v-51q0 -111 -35 -182.5t-111 -106.5q92 -35 130 -114t38 -193v-117q0 -166 -86 -253t-256 -87h-354v1434h340zM307 645v-440h129q57 0 87 30.5t30 110.5v125q0 100 -34 137t-111 37h-101zM307 1229v-379h88q63 0 99 32.5t36 118.5v80
q0 78 -27.5 113t-86.5 35h-109z" />
    <glyph glyph-name="C" unicode="C" horiz-adv-x="790" 
d="M735 535v-191q0 -174 -85 -267t-251 -93t-251 93t-85 267v746q0 174 85 267t251 93t251 -93t85 -267v-140h-213v154q0 78 -31.5 109.5t-84.5 31.5t-85 -31.5t-32 -109.5v-774q0 -78 31.5 -109t85.5 -31q53 0 84.5 31t31.5 109v205h213z" />
    <glyph glyph-name="D" unicode="D" horiz-adv-x="835" 
d="M82 1434h356q170 0 253 -90.5t83 -264.5v-725q0 -174 -83 -264t-253 -90h-356v1434zM307 1229v-1024h127q53 0 84 30.5t31 108.5v746q0 78 -31 108.5t-84 30.5h-127z" />
    <glyph glyph-name="E" unicode="E" horiz-adv-x="753" 
d="M307 829h309v-204h-309v-420h389v-205h-614v1434h614v-205h-389v-400z" />
    <glyph glyph-name="F" unicode="F" horiz-adv-x="704" 
d="M307 797h291v-205h-291v-592h-225v1434h596v-205h-371v-432z" />
    <glyph glyph-name="G" unicode="G" horiz-adv-x="798" 
d="M420 799h315v-455q0 -174 -85 -267t-251 -93t-251 93t-85 267v746q0 174 85 267t251 93t251 -93t85 -267v-140h-213v154q0 78 -31.5 109.5t-84.5 31.5t-85 -31.5t-32 -109.5v-774q0 -78 31.5 -109t85.5 -31q53 0 84.5 31t31.5 109v264h-102v205z" />
    <glyph glyph-name="H" unicode="H" horiz-adv-x="874" 
d="M307 0h-225v1434h225v-615h256v615h230v-1434h-230v614h-256v-614z" />
    <glyph glyph-name="I" unicode="I" horiz-adv-x="389" 
d="M82 1434h225v-1434h-225v1434z" />
    <glyph glyph-name="J" unicode="J" horiz-adv-x="524" 
d="M20 205q18 -2 39 -2h39q53 0 91 26.5t38 110.5v1094h226v-1078q0 -109 -27 -178t-72 -109t-103 -56.5t-122 -16.5h-55.5t-53.5 4v205z" />
    <glyph glyph-name="K" unicode="K" horiz-adv-x="847" 
d="M377 571l-70 -131v-440h-225v1434h225v-625l299 625h221l-313 -639l313 -795h-231z" />
    <glyph glyph-name="L" unicode="L" horiz-adv-x="698" 
d="M82 1434h225v-1229h371v-205h-596v1434z" />
    <glyph glyph-name="M" unicode="M" horiz-adv-x="1107" 
d="M559 416l154 1018h313v-1434h-213v1028l-156 -1028h-213l-168 1014v-1014h-196v1434h313z" />
    <glyph glyph-name="N" unicode="N" horiz-adv-x="874" 
d="M283 1038v-1038h-203v1434h282l232 -859v859h201v-1434h-232z" />
    <glyph glyph-name="O" unicode="O" 
d="M289 330q0 -78 31.5 -110t85.5 -32q53 0 84.5 32t31.5 110v774q0 78 -31.5 109.5t-84.5 31.5t-85 -31.5t-32 -109.5v-774zM63 1090q0 174 88.5 267t254.5 93t254 -93t88 -267v-746q0 -174 -88.5 -267t-253.5 -93q-166 0 -254.5 93t-88.5 267v746z" />
    <glyph glyph-name="P" unicode="P" horiz-adv-x="772" 
d="M414 1434q170 0 253 -90.5t83 -264.5v-186q0 -174 -83 -264t-253 -90h-107v-539h-225v1434h332zM307 1229v-486h107q53 0 81.5 29t28.5 107v215q0 78 -28.5 106.5t-81.5 28.5h-107z" />
    <glyph glyph-name="Q" unicode="Q" 
d="M63 1090q0 174 88.5 267t254.5 93t254 -93t88 -267v-746q0 -121 -43 -201q8 -20 21 -25t42 -5h20v-201h-30q-76 0 -124 25.5t-71 72.5q-35 -12 -73.5 -19t-83.5 -7q-166 0 -254.5 93t-88.5 267v746zM289 330q0 -78 31.5 -110t85.5 -32q53 0 84.5 32t31.5 110v774
q0 78 -31.5 109.5t-84.5 31.5t-85 -31.5t-32 -109.5v-774z" />
    <glyph glyph-name="R" unicode="R" horiz-adv-x="823" 
d="M553 0q-4 14 -8 26.5t-7 31t-4.5 47t-1.5 71.5v225q0 100 -34.5 141.5t-112.5 41.5h-78v-584h-225v1434h340q176 0 255 -82t79 -248v-113q0 -221 -148 -291q86 -35 118 -113.5t32 -191.5v-221q0 -53 4 -93t20 -81h-229zM307 1229v-441h88q63 0 99 33t36 119v141
q0 78 -27.5 113t-86.5 35h-109z" />
    <glyph glyph-name="S" unicode="S" horiz-adv-x="765" 
d="M53 1090q0 174 83 267t249 93t249 -93t83 -267v-56h-213v70q0 78 -30 109.5t-83 31.5t-82.5 -31.5t-29.5 -109.5q0 -74 32.5 -130t81.5 -106.5t105.5 -100.5t105.5 -109.5t82 -135.5t33 -178q0 -174 -85 -267t-251 -93t-251 93t-85 267v98h213v-112q0 -78 32 -109t85 -31
t85 31t32 109q0 74 -33 130t-82 106t-105.5 100.5t-105.5 110t-82 135.5t-33 178z" />
    <glyph glyph-name="T" unicode="T" horiz-adv-x="737" 
d="M20 1434h697v-205h-236v-1229h-225v1229h-236v205z" />
    <glyph glyph-name="U" unicode="U" horiz-adv-x="815" 
d="M297 1434v-1106q0 -78 31.5 -109t85.5 -31q53 0 84.5 31t31.5 109v1106h213v-1092q0 -174 -85 -267t-250 -93q-166 0 -251 93t-85 267v1092h225z" />
    <glyph glyph-name="V" unicode="V" horiz-adv-x="823" 
d="M422 264l172 1170h207l-221 -1434h-336l-221 1434h227z" />
    <glyph glyph-name="W" unicode="W" horiz-adv-x="1153" 
d="M582 764l-82 -764h-310l-159 1434h219l121 -1131l108 1131h217l113 -1139l117 1139h196l-159 -1434h-299z" />
    <glyph glyph-name="X" unicode="X" horiz-adv-x="880" 
d="M834 1434l-236 -697l252 -737h-238l-184 567l-186 -567h-211l252 737l-236 697h234l170 -529l174 529h209z" />
    <glyph glyph-name="Y" unicode="Y" 
d="M293 475l-285 959h236l172 -654l172 654h215l-285 -959v-475h-225v475z" />
    <glyph glyph-name="Z" unicode="Z" horiz-adv-x="757" 
d="M707 1434v-201l-428 -1028h428v-205h-660v201l428 1028h-407v205h639z" />
    <glyph glyph-name="bracketleft" unicode="[" horiz-adv-x="514" 
d="M96 1434h373v-185h-147v-1065h147v-184h-373v1434z" />
    <glyph glyph-name="backslash" unicode="\" horiz-adv-x="780" 
d="M770 0h-195l-565 1434h195z" />
    <glyph glyph-name="bracketright" unicode="]" horiz-adv-x="514" 
d="M418 0h-373v184h148v1065h-148v185h373v-1434z" />
    <glyph glyph-name="asciicircum" unicode="^" 
d="M326 1434h159l285 -635h-180l-184 430l-185 -430h-180z" />
    <glyph glyph-name="underscore" unicode="_" horiz-adv-x="1024" 
d="M0 -20h1024v-164h-1024v164z" />
    <glyph glyph-name="grave" unicode="`" horiz-adv-x="512" 
d="M303 1743l148 -240h-170l-222 240h244z" />
    <glyph glyph-name="a" unicode="a" horiz-adv-x="833" 
d="M811 0h-227l-39 260h-277l-39 -260h-206l229 1434h330zM297 455h217l-108 725z" />
    <glyph glyph-name="b" unicode="b" horiz-adv-x="831" 
d="M422 1434q176 0 255 -82t79 -248v-51q0 -111 -35 -182.5t-111 -106.5q92 -35 130 -114t38 -193v-117q0 -166 -86 -253t-256 -87h-354v1434h340zM307 645v-440h129q57 0 87 30.5t30 110.5v125q0 100 -34 137t-111 37h-101zM307 1229v-379h88q63 0 99 32.5t36 118.5v80
q0 78 -27.5 113t-86.5 35h-109z" />
    <glyph glyph-name="c" unicode="c" horiz-adv-x="790" 
d="M735 535v-191q0 -174 -85 -267t-251 -93t-251 93t-85 267v746q0 174 85 267t251 93t251 -93t85 -267v-140h-213v154q0 78 -31.5 109.5t-84.5 31.5t-85 -31.5t-32 -109.5v-774q0 -78 31.5 -109t85.5 -31q53 0 84.5 31t31.5 109v205h213z" />
    <glyph glyph-name="d" unicode="d" horiz-adv-x="835" 
d="M82 1434h356q170 0 253 -90.5t83 -264.5v-725q0 -174 -83 -264t-253 -90h-356v1434zM307 1229v-1024h127q53 0 84 30.5t31 108.5v746q0 78 -31 108.5t-84 30.5h-127z" />
    <glyph glyph-name="e" unicode="e" horiz-adv-x="753" 
d="M307 829h309v-204h-309v-420h389v-205h-614v1434h614v-205h-389v-400z" />
    <glyph glyph-name="f" unicode="f" horiz-adv-x="704" 
d="M307 797h291v-205h-291v-592h-225v1434h596v-205h-371v-432z" />
    <glyph glyph-name="g" unicode="g" horiz-adv-x="798" 
d="M420 799h315v-455q0 -174 -85 -267t-251 -93t-251 93t-85 267v746q0 174 85 267t251 93t251 -93t85 -267v-140h-213v154q0 78 -31.5 109.5t-84.5 31.5t-85 -31.5t-32 -109.5v-774q0 -78 31.5 -109t85.5 -31q53 0 84.5 31t31.5 109v264h-102v205z" />
    <glyph glyph-name="h" unicode="h" horiz-adv-x="874" 
d="M307 0h-225v1434h225v-615h256v615h230v-1434h-230v614h-256v-614z" />
    <glyph glyph-name="i" unicode="i" horiz-adv-x="389" 
d="M82 1434h225v-1434h-225v1434z" />
    <glyph glyph-name="j" unicode="j" horiz-adv-x="524" 
d="M20 205q18 -2 39 -2h39q53 0 91 26.5t38 110.5v1094h226v-1078q0 -109 -27 -178t-72 -109t-103 -56.5t-122 -16.5h-55.5t-53.5 4v205z" />
    <glyph glyph-name="k" unicode="k" horiz-adv-x="847" 
d="M377 571l-70 -131v-440h-225v1434h225v-625l299 625h221l-313 -639l313 -795h-231z" />
    <glyph glyph-name="l" unicode="l" horiz-adv-x="698" 
d="M82 1434h225v-1229h371v-205h-596v1434z" />
    <glyph glyph-name="m" unicode="m" horiz-adv-x="1107" 
d="M559 416l154 1018h313v-1434h-213v1028l-156 -1028h-213l-168 1014v-1014h-196v1434h313z" />
    <glyph glyph-name="n" unicode="n" horiz-adv-x="874" 
d="M283 1038v-1038h-203v1434h282l232 -859v859h201v-1434h-232z" />
    <glyph glyph-name="o" unicode="o" 
d="M289 330q0 -78 31.5 -110t85.5 -32q53 0 84.5 32t31.5 110v774q0 78 -31.5 109.5t-84.5 31.5t-85 -31.5t-32 -109.5v-774zM63 1090q0 174 88.5 267t254.5 93t254 -93t88 -267v-746q0 -174 -88.5 -267t-253.5 -93q-166 0 -254.5 93t-88.5 267v746z" />
    <glyph glyph-name="p" unicode="p" horiz-adv-x="772" 
d="M414 1434q170 0 253 -90.5t83 -264.5v-186q0 -174 -83 -264t-253 -90h-107v-539h-225v1434h332zM307 1229v-486h107q53 0 81.5 29t28.5 107v215q0 78 -28.5 106.5t-81.5 28.5h-107z" />
    <glyph glyph-name="q" unicode="q" 
d="M63 1090q0 174 88.5 267t254.5 93t254 -93t88 -267v-746q0 -121 -43 -201q8 -20 21 -25t42 -5h20v-201h-30q-76 0 -124 25.5t-71 72.5q-35 -12 -73.5 -19t-83.5 -7q-166 0 -254.5 93t-88.5 267v746zM289 330q0 -78 31.5 -110t85.5 -32q53 0 84.5 32t31.5 110v774
q0 78 -31.5 109.5t-84.5 31.5t-85 -31.5t-32 -109.5v-774z" />
    <glyph glyph-name="r" unicode="r" horiz-adv-x="823" 
d="M553 0q-4 14 -8 26.5t-7 31t-4.5 47t-1.5 71.5v225q0 100 -34.5 141.5t-112.5 41.5h-78v-584h-225v1434h340q176 0 255 -82t79 -248v-113q0 -221 -148 -291q86 -35 118 -113.5t32 -191.5v-221q0 -53 4 -93t20 -81h-229zM307 1229v-441h88q63 0 99 33t36 119v141
q0 78 -27.5 113t-86.5 35h-109z" />
    <glyph glyph-name="s" unicode="s" horiz-adv-x="765" 
d="M53 1090q0 174 83 267t249 93t249 -93t83 -267v-56h-213v70q0 78 -30 109.5t-83 31.5t-82.5 -31.5t-29.5 -109.5q0 -74 32.5 -130t81.5 -106.5t105.5 -100.5t105.5 -109.5t82 -135.5t33 -178q0 -174 -85 -267t-251 -93t-251 93t-85 267v98h213v-112q0 -78 32 -109t85 -31
t85 31t32 109q0 74 -33 130t-82 106t-105.5 100.5t-105.5 110t-82 135.5t-33 178z" />
    <glyph glyph-name="t" unicode="t" horiz-adv-x="737" 
d="M20 1434h697v-205h-236v-1229h-225v1229h-236v205z" />
    <glyph glyph-name="u" unicode="u" horiz-adv-x="815" 
d="M297 1434v-1106q0 -78 31.5 -109t85.5 -31q53 0 84.5 31t31.5 109v1106h213v-1092q0 -174 -85 -267t-250 -93q-166 0 -251 93t-85 267v1092h225z" />
    <glyph glyph-name="v" unicode="v" horiz-adv-x="823" 
d="M422 264l172 1170h207l-221 -1434h-336l-221 1434h227z" />
    <glyph glyph-name="w" unicode="w" horiz-adv-x="1153" 
d="M582 764l-82 -764h-310l-159 1434h219l121 -1131l108 1131h217l113 -1139l117 1139h196l-159 -1434h-299z" />
    <glyph glyph-name="x" unicode="x" horiz-adv-x="880" 
d="M834 1434l-236 -697l252 -737h-238l-184 567l-186 -567h-211l252 737l-236 697h234l170 -529l174 529h209z" />
    <glyph glyph-name="y" unicode="y" 
d="M293 475l-285 959h236l172 -654l172 654h215l-285 -959v-475h-225v475z" />
    <glyph glyph-name="z" unicode="z" horiz-adv-x="757" 
d="M707 1434v-201l-428 -1028h428v-205h-660v201l428 1028h-407v205h639z" />
    <glyph glyph-name="braceleft" unicode="{" horiz-adv-x="526" 
d="M209 717q39 -10 64.5 -29.5t40 -44.5t20.5 -52.5t8 -55.5l10 -205q4 -86 30 -116t79 -30h33v-184h-115q-96 0 -157.5 55.5t-69.5 171.5l-17 275q-4 72 -25.5 97.5t-86.5 25.5v184q66 0 87 25.5t25 97.5l17 274q8 117 69.5 172.5t157.5 55.5h115v-185h-33q-53 0 -79 -29.5
t-30 -115.5l-10 -205q-2 -29 -8 -57.5t-20.5 -53t-40 -43t-64.5 -28.5z" />
    <glyph glyph-name="bar" unicode="|" horiz-adv-x="1024" 
d="M430 1567h184v-1700h-184v1700z" />
    <glyph glyph-name="braceright" unicode="}" horiz-adv-x="526" 
d="M317 717q-78 20 -104.5 72.5t-28.5 109.5l-10 205q-4 86 -29.5 115.5t-78.5 29.5h-33v185h114q96 0 158 -55.5t70 -172.5l16 -274q4 -72 25.5 -97.5t87.5 -25.5v-184q-66 0 -87.5 -26t-25.5 -97l-16 -275q-8 -117 -69.5 -172t-158.5 -55h-114v184h33q53 0 78.5 30
t29.5 116l10 205q2 57 28.5 109.5t104.5 72.5z" />
    <glyph glyph-name="asciitilde" unicode="~" 
d="M16 680q37 55 69 90t60.5 56.5t57 29.5t57.5 8q41 0 80 -19.5t76 -43t70.5 -43t66.5 -19.5q35 0 61.5 26t73.5 91l107 -111q-74 -109 -130.5 -142.5t-113.5 -33.5q-41 0 -80 19.5t-76 43t-70.5 43t-66.5 19.5q-35 0 -61.5 -25.5t-73.5 -90.5z" />
    <glyph glyph-name="uni00A0" unicode="&#xa0;" horiz-adv-x="317" 
 />
    <glyph glyph-name="exclamdown" unicode="&#xa1;" horiz-adv-x="389" 
d="M279 1116l28 -518v-598h-225v598l29 518h168zM86 1217v217h217v-217h-217z" />
    <glyph glyph-name="cent" unicode="&#xa2;" 
d="M313 76q-119 25 -179 114t-60 236v582q0 145 60.5 234t178.5 116v106h185v-104q123 -25 185 -115t62 -237v-99h-213v113q0 78 -31.5 109.5t-84.5 31.5t-85 -31.5t-32 -109.5v-610q0 -78 31.5 -109t85.5 -31q53 0 84.5 31t31.5 109v163h213v-149q0 -147 -62 -238.5
t-185 -113.5v-105h-185v107z" />
    <glyph glyph-name="sterling" unicode="&#xa3;" 
d="M90 604h137q-18 53 -42.5 100.5t-48 101.5t-39 121.5t-15.5 162.5q0 174 83 267t249 93t248.5 -93t82.5 -267v-142h-213v156q0 78 -29.5 109.5t-82.5 31.5t-83 -31.5t-30 -109.5q0 -96 16.5 -164t38 -123t45 -105t37.5 -108h248v-174h-233q-8 -78 -38 -133t-77 -92h387
v-205h-670v197q80 0 135.5 61t59.5 172h-166v174z" />
    <glyph glyph-name="yen" unicode="&#xa5;" 
d="M797 1434l-262 -879h170v-113h-187v-92h187v-112h-187v-238h-225v238h-187v112h187v92h-187v113h168l-260 879h236l166 -633l166 633h215z" />
    <glyph glyph-name="section" unicode="&#xa7;" 
d="M72 643q0 78 34.5 143.5t106.5 106.5q-59 39 -100 99.5t-41 166.5q0 123 84 207t247 84q166 0 249 -78t83 -201v-73h-213v43q0 55 -29.5 89t-82.5 34q-113 0 -113 -115q0 -43 32.5 -69.5t82 -50t105.5 -49.5t105.5 -67t82 -101t32.5 -155q0 -78 -35.5 -144.5
t-107.5 -106.5q59 -37 101 -98.5t42 -166.5q0 -123 -84 -207t-247 -84q-166 0 -249 78t-83 201v102h213v-71q0 -55 29.5 -89t82.5 -34q113 0 113 115q0 43 -33 69.5t-82 50t-105 49t-105.5 66.5t-82 101.5t-32.5 154.5zM287 651q0 -61 35.5 -96t89.5 -61q51 8 80.5 53
t29.5 102q0 59 -36.5 94t-90.5 62q-51 -8 -79.5 -52.5t-28.5 -101.5z" />
    <glyph glyph-name="dieresis" unicode="&#xa8;" horiz-adv-x="512" 
d="M197 1712v-209h-209v209h209zM524 1712v-209h-209v209h209z" />
    <glyph glyph-name="copyright" unicode="&#xa9;" horiz-adv-x="1507" 
d="M977 631v-115q0 -121 -57.5 -185.5t-174.5 -64.5t-174 64.5t-57 185.5v397q0 123 57.5 188.5t173.5 65.5q117 0 174.5 -65.5t57.5 -188.5v-73h-148v86q0 53 -21.5 75.5t-57.5 22.5q-37 0 -58.5 -22.5t-21.5 -75.5v-418q0 -53 21.5 -74.5t58.5 -21.5t58 21.5t21 74.5v123
h148zM41 717q0 160 54.5 294t149.5 232t226 152.5t283 54.5t282.5 -54.5t226 -152.5t149.5 -232t54 -294t-54 -294t-149.5 -232.5t-226.5 -152.5t-282 -54q-152 0 -283 54t-226 152.5t-149.5 232.5t-54.5 294zM188 717q0 -129 43 -236.5t119 -186.5t179.5 -123t224.5 -44
t224 44t179 123t119 186.5t43 236.5t-43 236.5t-119 186.5t-179.5 123t-223.5 44q-121 0 -224.5 -44t-179.5 -123t-119 -186.5t-43 -236.5z" />
    <glyph glyph-name="ordfeminine" unicode="&#xaa;" horiz-adv-x="569" 
d="M61 887q0 74 21.5 122t60.5 76.5t92.5 42t116.5 15.5v94q0 76 -57 76q-35 0 -52.5 -19.5t-17.5 -68.5v-47h-135v39q0 109 52.5 168t158.5 59q104 0 149.5 -59.5t45.5 -167.5v-535h-121l-8 98q-35 -109 -146 -108q-160 0 -160 207v8zM496 588v-142h-435v142h435zM205 891
q0 -49 19.5 -68.5t54.5 -19.5q33 0 51 16.5t22 57.5v159q-47 -2 -76.5 -14t-45 -30.5t-20.5 -40t-5 -42.5v-18z" />
    <glyph glyph-name="guillemotleft" unicode="&#xab;" horiz-adv-x="727" 
d="M362 1245l-124 -526l124 -559h-202l-127 559l127 526h202zM694 1245l-125 -526l125 -559h-202l-127 559l127 526h202z" />
    <glyph glyph-name="logicalnot" unicode="&#xac;" 
d="M760 797v-441h-160v281h-549v160h709z" />
    <glyph glyph-name="uni00AD" unicode="&#xad;" horiz-adv-x="552" 
d="M72 819h409v-205h-409v205z" />
    <glyph glyph-name="registered" unicode="&#xae;" horiz-adv-x="1507" 
d="M41 717q0 160 54.5 294t149.5 232t226 152.5t283 54.5t282.5 -54.5t226 -152.5t149.5 -232t54 -294t-54 -294t-149.5 -232.5t-226.5 -152.5t-282 -54q-152 0 -283 54t-226 152.5t-149.5 232.5t-54.5 294zM188 717q0 -129 43 -236.5t119 -186.5t179.5 -123t224.5 -44
t224 44t179 123t119 186.5t43 236.5t-43 236.5t-119 186.5t-179.5 123t-223.5 44q-121 0 -224.5 -44t-179.5 -123t-119 -186.5t-43 -236.5zM856 279q-4 10 -7 19t-4 21.5t-2 32t-1 49.5v95q0 72 -25.5 99.5t-79.5 27.5h-53v-344h-156v876h238q121 0 176 -56.5t55 -172.5v-19
q0 -156 -106 -202q59 -25 82.5 -79.5t23.5 -131.5v-95q0 -35 3.5 -63.5t15.5 -56.5h-160zM684 1012v-246h64q43 0 68.5 22.5t25.5 81.5v37q0 104 -84 105h-74z" />
    <glyph glyph-name="macron" unicode="&#xaf;" horiz-adv-x="512" 
d="M504 1681v-168h-496v168h496z" />
    <glyph glyph-name="degree" unicode="&#xb0;" horiz-adv-x="466" 
d="M31 1247q0 86 58 144.5t144 58.5t144.5 -58.5t58.5 -144.5t-58.5 -144.5t-144.5 -58.5t-144 58.5t-58 144.5zM133 1247q0 -41 30 -70.5t70 -29.5q41 0 71 29.5t30 70.5t-30 71t-71 30t-70.5 -30t-29.5 -71z" />
    <glyph glyph-name="plusminus" unicode="&#xb1;" 
d="M485 797h275v-160h-275v-281h-159v281h-275v160h275v276h159v-276z" />
    <glyph glyph-name="acute" unicode="&#xb4;" horiz-adv-x="512" 
d="M446 1743l-221 -240h-159l147 240h233z" />
    <glyph glyph-name="uni00B5" unicode="&#xb5;" horiz-adv-x="1077" 
d="M1006 33h-226v190q-88 -43 -185 -64.5t-175 -21.5q-35 0 -64.5 3t-58.5 14v-551h-225v1433h225v-569q4 -68 34.5 -95.5t82.5 -27.5q27 0 87 7t122.5 23.5t109.5 43t47 65.5v553h226v-1003z" />
    <glyph glyph-name="paragraph" unicode="&#xb6;" 
d="M729 -133h-164v1403h-110v-1403h-164l4 676q-129 0 -197.5 98t-68.5 252v186q0 174 83 264.5t253 90.5h364v-1567z" />
    <glyph glyph-name="periodcentered" unicode="&#xb7;" horiz-adv-x="380" 
d="M299 825v-217h-217v217h217z" />
    <glyph glyph-name="cedilla" unicode="&#xb8;" horiz-adv-x="512" 
d="M74 -203h131v-20q0 -23 13 -30t30 -7q53 0 53 53q0 57 -74 57h-22v179h102v-109q59 0 94 -31.5t35 -85.5q0 -92 -55 -130t-131 -38q-70 0 -123 35t-53 107v20z" />
    <glyph glyph-name="ordmasculine" unicode="&#xba;" horiz-adv-x="573" 
d="M213 891q0 -49 19.5 -68.5t54.5 -19.5t54 19.5t19 68.5v334q0 49 -19 68.5t-54 19.5t-54.5 -19.5t-19.5 -68.5v-334zM70 1217q0 109 55 168t162 59q106 0 161.5 -59.5t55.5 -167.5v-318q0 -109 -55.5 -168t-161.5 -59t-161.5 59.5t-55.5 167.5v318zM504 588v-142h-434
v142h434z" />
    <glyph glyph-name="guillemotright" unicode="&#xbb;" horiz-adv-x="727" 
d="M567 1245l127 -526l-127 -559h-202l124 559l-124 526h202zM236 1245l126 -526l-126 -559h-203l125 559l-125 526h203z" />
    <glyph glyph-name="questiondown" unicode="&#xbf;" horiz-adv-x="737" 
d="M492 1116q12 -37 12 -88q0 -78 -18.5 -135t-45 -105.5t-59.5 -92.5t-59.5 -95t-45 -116.5t-18.5 -153.5q0 -78 29.5 -110t83.5 -32q53 0 82.5 32t29.5 110v155h213v-141q0 -174 -83 -267t-248 -93q-166 0 -249 93t-83 267q0 92 19.5 161.5t49 125t64.5 101.5t64.5 91
t49 96.5t19.5 116.5q0 45 -8 80h201zM285 1217v217h217v-217h-217z" />
    <glyph glyph-name="Agrave" unicode="&#xc0;" horiz-adv-x="833" 
d="M811 0h-227l-39 260h-277l-39 -260h-206l229 1434h330zM297 455h217l-108 725zM383 1743l147 -240h-170l-221 240h244z" />
    <glyph glyph-name="Aacute" unicode="&#xc1;" horiz-adv-x="833" 
d="M811 0h-227l-39 260h-277l-39 -260h-206l229 1434h330zM297 455h217l-108 725zM688 1743l-221 -240h-160l148 240h233z" />
    <glyph glyph-name="Acircumflex" unicode="&#xc2;" horiz-adv-x="833" 
d="M811 0h-227l-39 260h-277l-39 -260h-206l229 1434h330zM297 455h217l-108 725zM119 1503l190 240h215l191 -240h-203l-96 119l-94 -119h-203z" />
    <glyph glyph-name="Atilde" unicode="&#xc3;" horiz-adv-x="833" 
d="M811 0h-227l-39 260h-277l-39 -260h-206l229 1434h330zM297 455h217l-108 725zM721 1649q-51 -90 -95 -118t-100 -28q-35 0 -63.5 8.5t-53 19.5t-47 19.5t-47.5 8.5q-29 0 -49 -13.5t-41 -54.5l-114 86q51 90 95 117.5t99 27.5q35 0 63.5 -8t53 -19.5t47.5 -19.5t47 -8
q29 0 49.5 13.5t40.5 54.5z" />
    <glyph glyph-name="Adieresis" unicode="&#xc4;" horiz-adv-x="833" 
d="M811 0h-227l-39 260h-277l-39 -260h-206l229 1434h330zM297 455h217l-108 725zM356 1712v-209h-209v209h209zM684 1712v-209h-209v209h209z" />
    <glyph glyph-name="Aring" unicode="&#xc5;" horiz-adv-x="833" 
d="M811 0h-227l-39 260h-277l-39 -260h-206l229 1434h330zM297 455h217l-108 725zM244 1667q0 72 50 122t122 50t122 -50t50 -122t-50.5 -122t-121.5 -50q-72 0 -122 50t-50 122zM350 1667q0 -29 18.5 -47t47.5 -18t47 18t18 47t-18.5 47.5t-46.5 18.5q-29 0 -47.5 -18.5
t-18.5 -47.5z" />
    <glyph glyph-name="AE" unicode="&#xc6;" horiz-adv-x="1187" 
d="M516 260h-227l-66 -260h-215l383 1434h739v-205h-389v-400h310v-204h-310v-420h389v-205h-614v260zM516 455v690l-176 -690h176z" />
    <glyph glyph-name="Ccedilla" unicode="&#xc7;" horiz-adv-x="790" 
d="M213 -203h131v-20q0 -23 13.5 -30t29.5 -7q53 0 53 53q0 57 -73 57h-23v138q-141 14 -211 105t-70 251v746q0 174 85 267t251 93t251 -93t85 -267v-140h-213v154q0 78 -31.5 109.5t-84.5 31.5t-85 -31.5t-32 -109.5v-774q0 -78 31.5 -109t85.5 -31q53 0 84.5 31t31.5 109
v205h213v-191q0 -160 -72.5 -253t-216.5 -105v-66q59 0 94 -31.5t35 -85.5q0 -92 -55 -130t-131 -38q-70 0 -123 35t-53 107v20z" />
    <glyph glyph-name="Egrave" unicode="&#xc8;" horiz-adv-x="753" 
d="M307 829h309v-204h-309v-420h389v-205h-614v1434h614v-205h-389v-400zM352 1743l148 -240h-170l-221 240h243z" />
    <glyph glyph-name="Eacute" unicode="&#xc9;" horiz-adv-x="753" 
d="M307 829h309v-204h-309v-420h389v-205h-614v1434h614v-205h-389v-400zM659 1743l-221 -240h-159l147 240h233z" />
    <glyph glyph-name="Ecircumflex" unicode="&#xca;" horiz-adv-x="753" 
d="M307 829h309v-204h-309v-420h389v-205h-614v1434h614v-205h-389v-400zM88 1503l191 240h215l190 -240h-203l-96 119l-94 -119h-203z" />
    <glyph glyph-name="Edieresis" unicode="&#xcb;" horiz-adv-x="753" 
d="M307 829h309v-204h-309v-420h389v-205h-614v1434h614v-205h-389v-400zM328 1712v-209h-209v209h209zM655 1712v-209h-209v209h209z" />
    <glyph glyph-name="Igrave" unicode="&#xcc;" horiz-adv-x="389" 
d="M82 1434h225v-1434h-225v1434zM162 1743l147 -240h-170l-221 240h244z" />
    <glyph glyph-name="Iacute" unicode="&#xcd;" horiz-adv-x="389" 
d="M82 1434h225v-1434h-225v1434zM467 1743l-221 -240h-160l147 240h234z" />
    <glyph glyph-name="Icircumflex" unicode="&#xce;" horiz-adv-x="389" 
d="M82 1434h225v-1434h-225v1434zM-102 1503l190 240h215l191 -240h-203l-96 119l-95 -119h-202z" />
    <glyph glyph-name="Idieresis" unicode="&#xcf;" horiz-adv-x="389" 
d="M82 1434h225v-1434h-225v1434zM135 1712v-209h-209v209h209zM463 1712v-209h-209v209h209z" />
    <glyph glyph-name="Eth" unicode="&#xd0;" horiz-adv-x="835" 
d="M82 625h-74v184h74v625h356q170 0 253 -90.5t83 -264.5v-725q0 -174 -83 -264t-253 -90h-356v625zM307 1229v-420h139v-184h-139v-420h127q53 0 84 30.5t31 108.5v746q0 78 -31 108.5t-84 30.5h-127z" />
    <glyph glyph-name="Ntilde" unicode="&#xd1;" horiz-adv-x="874" 
d="M283 1038v-1038h-203v1434h282l232 -859v859h201v-1434h-232zM741 1649q-51 -90 -95 -118t-99 -28q-35 0 -63.5 8.5t-53 19.5t-47.5 19.5t-47 8.5q-29 0 -49.5 -13.5t-40.5 -54.5l-115 86q51 90 95 117.5t100 27.5q35 0 63.5 -8t53 -19.5t47 -19.5t47.5 -8q29 0 49 13.5
t41 54.5z" />
    <glyph glyph-name="Ograve" unicode="&#xd2;" 
d="M289 330q0 -78 31.5 -110t85.5 -32q53 0 84.5 32t31.5 110v774q0 78 -31.5 109.5t-84.5 31.5t-85 -31.5t-32 -109.5v-774zM63 1090q0 174 88.5 267t254.5 93t254 -93t88 -267v-746q0 -174 -88.5 -267t-253.5 -93q-166 0 -254.5 93t-88.5 267v746zM371 1743l147 -240h-170
l-221 240h244z" />
    <glyph glyph-name="Oacute" unicode="&#xd3;" 
d="M289 330q0 -78 31.5 -110t85.5 -32q53 0 84.5 32t31.5 110v774q0 78 -31.5 109.5t-84.5 31.5t-85 -31.5t-32 -109.5v-774zM63 1090q0 174 88.5 267t254.5 93t254 -93t88 -267v-746q0 -174 -88.5 -267t-253.5 -93q-166 0 -254.5 93t-88.5 267v746zM678 1743l-221 -240
h-160l147 240h234z" />
    <glyph glyph-name="Ocircumflex" unicode="&#xd4;" 
d="M289 330q0 -78 31.5 -110t85.5 -32q53 0 84.5 32t31.5 110v774q0 78 -31.5 109.5t-84.5 31.5t-85 -31.5t-32 -109.5v-774zM63 1090q0 174 88.5 267t254.5 93t254 -93t88 -267v-746q0 -174 -88.5 -267t-253.5 -93q-166 0 -254.5 93t-88.5 267v746zM106 1503l191 240h215
l190 -240h-202l-97 119l-94 -119h-203z" />
    <glyph glyph-name="Otilde" unicode="&#xd5;" 
d="M289 330q0 -78 31.5 -110t85.5 -32q53 0 84.5 32t31.5 110v774q0 78 -31.5 109.5t-84.5 31.5t-85 -31.5t-32 -109.5v-774zM63 1090q0 174 88.5 267t254.5 93t254 -93t88 -267v-746q0 -174 -88.5 -267t-253.5 -93q-166 0 -254.5 93t-88.5 267v746zM711 1649
q-51 -90 -95.5 -118t-99.5 -28q-35 0 -63.5 8.5t-53 19.5t-47 19.5t-47.5 8.5q-29 0 -49 -13.5t-41 -54.5l-115 86q51 90 95.5 117.5t99.5 27.5q35 0 63.5 -8t53 -19.5t47 -19.5t47.5 -8q29 0 49 13.5t41 54.5z" />
    <glyph glyph-name="Odieresis" unicode="&#xd6;" 
d="M289 330q0 -78 31.5 -110t85.5 -32q53 0 84.5 32t31.5 110v774q0 78 -31.5 109.5t-84.5 31.5t-85 -31.5t-32 -109.5v-774zM63 1090q0 174 88.5 267t254.5 93t254 -93t88 -267v-746q0 -174 -88.5 -267t-253.5 -93q-166 0 -254.5 93t-88.5 267v746zM346 1712v-209h-209v209
h209zM674 1712v-209h-209v209h209z" />
    <glyph glyph-name="Oslash" unicode="&#xd8;" 
d="M135 94q-72 94 -72 250v746q0 174 88.5 267t254.5 93q123 0 204 -53l41 112l76 -26l-53 -146q74 -90 74 -247v-746q0 -174 -88.5 -267t-253.5 -93q-127 0 -205 51l-41 -111l-76 27zM289 514l229 633q-8 53 -37.5 75.5t-74.5 22.5q-53 0 -85 -31.5t-32 -109.5v-590z
M406 188q53 0 84.5 32t31.5 110v590l-231 -633q10 -53 39 -76t76 -23z" />
    <glyph glyph-name="Ugrave" unicode="&#xd9;" horiz-adv-x="815" 
d="M297 1434v-1106q0 -78 31.5 -109t85.5 -31q53 0 84.5 31t31.5 109v1106h213v-1092q0 -174 -85 -267t-250 -93q-166 0 -251 93t-85 267v1092h225zM375 1743l147 -240h-170l-221 240h244z" />
    <glyph glyph-name="Uacute" unicode="&#xda;" horiz-adv-x="815" 
d="M297 1434v-1106q0 -78 31.5 -109t85.5 -31q53 0 84.5 31t31.5 109v1106h213v-1092q0 -174 -85 -267t-250 -93q-166 0 -251 93t-85 267v1092h225zM682 1743l-221 -240h-160l148 240h233z" />
    <glyph glyph-name="Ucircumflex" unicode="&#xdb;" horiz-adv-x="815" 
d="M297 1434v-1106q0 -78 31.5 -109t85.5 -31q53 0 84.5 31t31.5 109v1106h213v-1092q0 -174 -85 -267t-250 -93q-166 0 -251 93t-85 267v1092h225zM113 1503l190 240h215l191 -240h-203l-96 119l-95 -119h-202z" />
    <glyph glyph-name="Udieresis" unicode="&#xdc;" horiz-adv-x="815" 
d="M297 1434v-1106q0 -78 31.5 -109t85.5 -31q53 0 84.5 31t31.5 109v1106h213v-1092q0 -174 -85 -267t-250 -93q-166 0 -251 93t-85 267v1092h225zM352 1712v-209h-209v209h209zM680 1712v-209h-209v209h209z" />
    <glyph glyph-name="Yacute" unicode="&#xdd;" 
d="M293 475l-285 959h236l172 -654l172 654h215l-285 -959v-475h-225v475zM686 1743l-221 -240h-160l148 240h233z" />
    <glyph glyph-name="Thorn" unicode="&#xde;" horiz-adv-x="772" 
d="M82 1434h225v-164h107q170 0 253 -90t83 -265v-186q0 -174 -83 -264t-253 -90h-107v-375h-225v1434zM307 1065v-485h107q53 0 81.5 28.5t28.5 106.5v215q0 78 -28.5 106.5t-81.5 28.5h-107z" />
    <glyph glyph-name="germandbls" unicode="&#xdf;" horiz-adv-x="1531" 
d="M53 1090q0 174 83 267t249 93t249 -93t83 -267v-56h-213v70q0 78 -30 109.5t-83 31.5t-82.5 -31.5t-29.5 -109.5q0 -74 32.5 -130t81.5 -106.5t105.5 -100.5t105.5 -109.5t82 -135.5t33 -178q0 -174 -85 -267t-251 -93t-251 93t-85 267v98h213v-112q0 -78 32 -109t85 -31
t85 31t32 109q0 74 -33 130t-82 106t-105.5 100.5t-105.5 110t-82 135.5t-33 178zM819 1090q0 174 83 267t249 93t249 -93t83 -267v-56h-213v70q0 78 -30 109.5t-83 31.5t-83 -31.5t-30 -109.5q0 -74 33 -130t82 -106.5t105.5 -100.5t105.5 -109.5t82 -135.5t33 -178
q0 -174 -85 -267t-251 -93t-251 93t-85 267v98h213v-112q0 -78 32 -109t85 -31t85 31t32 109q0 74 -33 130t-82 106t-105.5 100.5t-105.5 110t-82 135.5t-33 178z" />
    <glyph glyph-name="agrave" unicode="&#xe0;" horiz-adv-x="833" 
d="M811 0h-227l-39 260h-277l-39 -260h-206l229 1434h330zM297 455h217l-108 725zM383 1743l147 -240h-170l-221 240h244z" />
    <glyph glyph-name="aacute" unicode="&#xe1;" horiz-adv-x="833" 
d="M811 0h-227l-39 260h-277l-39 -260h-206l229 1434h330zM297 455h217l-108 725zM688 1743l-221 -240h-160l148 240h233z" />
    <glyph glyph-name="acircumflex" unicode="&#xe2;" horiz-adv-x="833" 
d="M811 0h-227l-39 260h-277l-39 -260h-206l229 1434h330zM297 455h217l-108 725zM119 1503l190 240h215l191 -240h-203l-96 119l-94 -119h-203z" />
    <glyph glyph-name="atilde" unicode="&#xe3;" horiz-adv-x="833" 
d="M811 0h-227l-39 260h-277l-39 -260h-206l229 1434h330zM297 455h217l-108 725zM721 1649q-51 -90 -95 -118t-100 -28q-35 0 -63.5 8.5t-53 19.5t-47 19.5t-47.5 8.5q-29 0 -49 -13.5t-41 -54.5l-114 86q51 90 95 117.5t99 27.5q35 0 63.5 -8t53 -19.5t47.5 -19.5t47 -8
q29 0 49.5 13.5t40.5 54.5z" />
    <glyph glyph-name="adieresis" unicode="&#xe4;" horiz-adv-x="833" 
d="M811 0h-227l-39 260h-277l-39 -260h-206l229 1434h330zM297 455h217l-108 725zM356 1712v-209h-209v209h209zM684 1712v-209h-209v209h209z" />
    <glyph glyph-name="aring" unicode="&#xe5;" horiz-adv-x="833" 
d="M811 0h-227l-39 260h-277l-39 -260h-206l229 1434h330zM297 455h217l-108 725zM244 1667q0 72 50 122t122 50t122 -50t50 -122t-50.5 -122t-121.5 -50q-72 0 -122 50t-50 122zM350 1667q0 -29 18.5 -47t47.5 -18t47 18t18 47t-18.5 47.5t-46.5 18.5q-29 0 -47.5 -18.5
t-18.5 -47.5z" />
    <glyph glyph-name="ae" unicode="&#xe6;" horiz-adv-x="1187" 
d="M741 829h310v-204h-310v-420h389v-205h-614v260h-227l-66 -260h-215l383 1434h739v-205h-389v-400zM516 455v690l-176 -690h176z" />
    <glyph glyph-name="ccedilla" unicode="&#xe7;" horiz-adv-x="790" 
d="M213 -203h131v-20q0 -23 13.5 -30t29.5 -7q53 0 53 53q0 57 -73 57h-23v138q-141 14 -211 105t-70 251v746q0 174 85 267t251 93t251 -93t85 -267v-140h-213v154q0 78 -31.5 109.5t-84.5 31.5t-85 -31.5t-32 -109.5v-774q0 -78 31.5 -109t85.5 -31q53 0 84.5 31t31.5 109
v205h213v-191q0 -160 -72.5 -253t-216.5 -105v-66q59 0 94 -31.5t35 -85.5q0 -92 -55 -130t-131 -38q-70 0 -123 35t-53 107v20z" />
    <glyph glyph-name="egrave" unicode="&#xe8;" horiz-adv-x="753" 
d="M307 829h309v-204h-309v-420h389v-205h-614v1434h614v-205h-389v-400zM352 1743l148 -240h-170l-221 240h243z" />
    <glyph glyph-name="eacute" unicode="&#xe9;" horiz-adv-x="753" 
d="M307 829h309v-204h-309v-420h389v-205h-614v1434h614v-205h-389v-400zM659 1743l-221 -240h-159l147 240h233z" />
    <glyph glyph-name="ecircumflex" unicode="&#xea;" horiz-adv-x="753" 
d="M307 829h309v-204h-309v-420h389v-205h-614v1434h614v-205h-389v-400zM88 1503l191 240h215l190 -240h-203l-96 119l-94 -119h-203z" />
    <glyph glyph-name="edieresis" unicode="&#xeb;" horiz-adv-x="753" 
d="M307 829h309v-204h-309v-420h389v-205h-614v1434h614v-205h-389v-400zM328 1712v-209h-209v209h209zM655 1712v-209h-209v209h209z" />
    <glyph glyph-name="igrave" unicode="&#xec;" horiz-adv-x="389" 
d="M82 1434h225v-1434h-225v1434zM162 1743l147 -240h-170l-221 240h244z" />
    <glyph glyph-name="iacute" unicode="&#xed;" horiz-adv-x="389" 
d="M82 1434h225v-1434h-225v1434zM467 1743l-221 -240h-160l147 240h234z" />
    <glyph glyph-name="icircumflex" unicode="&#xee;" horiz-adv-x="389" 
d="M82 1434h225v-1434h-225v1434zM-102 1503l190 240h215l191 -240h-203l-96 119l-95 -119h-202z" />
    <glyph glyph-name="idieresis" unicode="&#xef;" horiz-adv-x="389" 
d="M82 1434h225v-1434h-225v1434zM135 1712v-209h-209v209h209zM463 1712v-209h-209v209h209z" />
    <glyph glyph-name="eth" unicode="&#xf0;" horiz-adv-x="835" 
d="M82 625h-74v184h74v625h356q170 0 253 -90.5t83 -264.5v-725q0 -174 -83 -264t-253 -90h-356v625zM307 1229v-420h139v-184h-139v-420h127q53 0 84 30.5t31 108.5v746q0 78 -31 108.5t-84 30.5h-127z" />
    <glyph glyph-name="ntilde" unicode="&#xf1;" horiz-adv-x="874" 
d="M283 1038v-1038h-203v1434h282l232 -859v859h201v-1434h-232zM741 1649q-51 -90 -95 -118t-99 -28q-35 0 -63.5 8.5t-53 19.5t-47.5 19.5t-47 8.5q-29 0 -49.5 -13.5t-40.5 -54.5l-115 86q51 90 95 117.5t100 27.5q35 0 63.5 -8t53 -19.5t47 -19.5t47.5 -8q29 0 49 13.5
t41 54.5z" />
    <glyph glyph-name="ograve" unicode="&#xf2;" 
d="M289 330q0 -78 31.5 -110t85.5 -32q53 0 84.5 32t31.5 110v774q0 78 -31.5 109.5t-84.5 31.5t-85 -31.5t-32 -109.5v-774zM63 1090q0 174 88.5 267t254.5 93t254 -93t88 -267v-746q0 -174 -88.5 -267t-253.5 -93q-166 0 -254.5 93t-88.5 267v746zM371 1743l147 -240h-170
l-221 240h244z" />
    <glyph glyph-name="oacute" unicode="&#xf3;" 
d="M289 330q0 -78 31.5 -110t85.5 -32q53 0 84.5 32t31.5 110v774q0 78 -31.5 109.5t-84.5 31.5t-85 -31.5t-32 -109.5v-774zM63 1090q0 174 88.5 267t254.5 93t254 -93t88 -267v-746q0 -174 -88.5 -267t-253.5 -93q-166 0 -254.5 93t-88.5 267v746zM678 1743l-221 -240
h-160l147 240h234z" />
    <glyph glyph-name="ocircumflex" unicode="&#xf4;" 
d="M289 330q0 -78 31.5 -110t85.5 -32q53 0 84.5 32t31.5 110v774q0 78 -31.5 109.5t-84.5 31.5t-85 -31.5t-32 -109.5v-774zM63 1090q0 174 88.5 267t254.5 93t254 -93t88 -267v-746q0 -174 -88.5 -267t-253.5 -93q-166 0 -254.5 93t-88.5 267v746zM106 1503l191 240h215
l190 -240h-202l-97 119l-94 -119h-203z" />
    <glyph glyph-name="otilde" unicode="&#xf5;" 
d="M289 330q0 -78 31.5 -110t85.5 -32q53 0 84.5 32t31.5 110v774q0 78 -31.5 109.5t-84.5 31.5t-85 -31.5t-32 -109.5v-774zM63 1090q0 174 88.5 267t254.5 93t254 -93t88 -267v-746q0 -174 -88.5 -267t-253.5 -93q-166 0 -254.5 93t-88.5 267v746zM711 1649
q-51 -90 -95.5 -118t-99.5 -28q-35 0 -63.5 8.5t-53 19.5t-47 19.5t-47.5 8.5q-29 0 -49 -13.5t-41 -54.5l-115 86q51 90 95.5 117.5t99.5 27.5q35 0 63.5 -8t53 -19.5t47 -19.5t47.5 -8q29 0 49 13.5t41 54.5z" />
    <glyph glyph-name="odieresis" unicode="&#xf6;" 
d="M289 330q0 -78 31.5 -110t85.5 -32q53 0 84.5 32t31.5 110v774q0 78 -31.5 109.5t-84.5 31.5t-85 -31.5t-32 -109.5v-774zM63 1090q0 174 88.5 267t254.5 93t254 -93t88 -267v-746q0 -174 -88.5 -267t-253.5 -93q-166 0 -254.5 93t-88.5 267v746zM346 1712v-209h-209v209
h209zM674 1712v-209h-209v209h209z" />
    <glyph glyph-name="divide" unicode="&#xf7;" 
d="M514 512v-217h-217v217h217zM514 1137v-217h-217v217h217zM760 797v-160h-709v160h709z" />
    <glyph glyph-name="oslash" unicode="&#xf8;" 
d="M63 1090q0 174 88.5 267t254.5 93q123 0 204 -53l41 112l76 -26l-53 -146q74 -90 74 -247v-746q0 -174 -88.5 -267t-253.5 -93q-127 0 -205 51l-41 -111l-76 27l51 143q-72 94 -72 250v746zM289 514l229 633q-8 53 -37.5 75.5t-74.5 22.5q-53 0 -85 -31.5t-32 -109.5
v-590zM406 188q53 0 84.5 32t31.5 110v590l-231 -633q10 -53 39 -76t76 -23z" />
    <glyph glyph-name="ugrave" unicode="&#xf9;" horiz-adv-x="815" 
d="M297 1434v-1106q0 -78 31.5 -109t85.5 -31q53 0 84.5 31t31.5 109v1106h213v-1092q0 -174 -85 -267t-250 -93q-166 0 -251 93t-85 267v1092h225zM375 1743l147 -240h-170l-221 240h244z" />
    <glyph glyph-name="uacute" unicode="&#xfa;" horiz-adv-x="815" 
d="M297 1434v-1106q0 -78 31.5 -109t85.5 -31q53 0 84.5 31t31.5 109v1106h213v-1092q0 -174 -85 -267t-250 -93q-166 0 -251 93t-85 267v1092h225zM682 1743l-221 -240h-160l148 240h233z" />
    <glyph glyph-name="ucircumflex" unicode="&#xfb;" horiz-adv-x="815" 
d="M297 1434v-1106q0 -78 31.5 -109t85.5 -31q53 0 84.5 31t31.5 109v1106h213v-1092q0 -174 -85 -267t-250 -93q-166 0 -251 93t-85 267v1092h225zM113 1503l190 240h215l191 -240h-203l-96 119l-95 -119h-202z" />
    <glyph glyph-name="udieresis" unicode="&#xfc;" horiz-adv-x="815" 
d="M297 1434v-1106q0 -78 31.5 -109t85.5 -31q53 0 84.5 31t31.5 109v1106h213v-1092q0 -174 -85 -267t-250 -93q-166 0 -251 93t-85 267v1092h225zM352 1712v-209h-209v209h209zM680 1712v-209h-209v209h209z" />
    <glyph glyph-name="yacute" unicode="&#xfd;" 
d="M293 475l-285 959h236l172 -654l172 654h215l-285 -959v-475h-225v475zM686 1743l-221 -240h-160l148 240h233z" />
    <glyph glyph-name="thorn" unicode="&#xfe;" horiz-adv-x="772" 
d="M82 1434h225v-164h107q170 0 253 -90t83 -265v-186q0 -174 -83 -264t-253 -90h-107v-375h-225v1434zM307 1065v-485h107q53 0 81.5 28.5t28.5 106.5v215q0 78 -28.5 106.5t-81.5 28.5h-107z" />
    <glyph glyph-name="ydieresis" unicode="&#xff;" 
d="M293 475l-285 959h236l172 -654l172 654h215l-285 -959v-475h-225v475zM354 1712v-209h-209v209h209zM682 1712v-209h-209v209h209z" />
    <glyph glyph-name="OE" unicode="&#x152;" horiz-adv-x="1200" 
d="M754 829h309v-204h-309v-420h389v-205h-746q-170 0 -253 90t-83 264v725q0 174 83 264.5t253 90.5h746v-205h-389v-400zM528 1229h-127q-53 0 -83.5 -31t-30.5 -108v-746q0 -78 30.5 -108.5t83.5 -30.5h127v1024z" />
    <glyph glyph-name="oe" unicode="&#x153;" horiz-adv-x="1200" 
d="M754 829h309v-204h-309v-420h389v-205h-746q-170 0 -253 90t-83 264v725q0 174 83 264.5t253 90.5h746v-205h-389v-400zM528 1229h-127q-53 0 -83.5 -31t-30.5 -108v-746q0 -78 30.5 -108.5t83.5 -30.5h127v1024z" />
    <glyph glyph-name="Ydieresis" unicode="&#x178;" 
d="M293 475l-285 959h236l172 -654l172 654h215l-285 -959v-475h-225v475zM354 1712v-209h-209v209h209zM682 1712v-209h-209v209h209z" />
    <glyph glyph-name="circumflex" unicode="&#x2c6;" horiz-adv-x="512" 
d="M-41 1503l191 240h215l190 -240h-203l-96 119l-94 -119h-203z" />
    <glyph glyph-name="tilde" unicode="&#x2dc;" horiz-adv-x="512" 
d="M561 1649q-51 -90 -95 -118t-99 -28q-35 0 -64 8.5t-53.5 19.5t-47 19.5t-46.5 8.5q-29 0 -49.5 -13.5t-40.5 -54.5l-115 86q51 90 95 117.5t99 27.5q35 0 64 -8t53.5 -19.5t47 -19.5t46.5 -8q29 0 49.5 13.5t40.5 54.5z" />
    <glyph glyph-name="afii10023" unicode="&#x401;" horiz-adv-x="747" 
d="M307 829h309v-204h-309v-420h389v-205h-614v1434h614v-205h-389v-400zM328 1712v-209h-209v209h209zM655 1712v-209h-209v209h209z" />
    <glyph glyph-name="afii10051" unicode="&#x402;" horiz-adv-x="868" 
d="M426 209l18 -2h19q53 0 91 26.5t38 110.5v209q0 78 -32 108.5t-85 30.5q-49 0 -81 -26.5t-36 -90.5v-575h-225v1268h-133v168h496v-168h-138v-385q29 10 58.5 13t64.5 3q166 0 251 -93t85 -267v-179q0 -109 -26.5 -178t-71.5 -109t-103.5 -56.5t-121.5 -16.5h-23.5h-12.5
t-11.5 1t-20.5 3v205z" />
    <glyph glyph-name="afii10052" unicode="&#x403;" horiz-adv-x="704" 
d="M307 0h-225v1434h596v-205h-371v-1229zM686 1743l-221 -240h-160l148 240h233z" />
    <glyph glyph-name="afii10053" unicode="&#x404;" horiz-adv-x="794" 
d="M287 829h309v-204h-309v-295q0 -78 31.5 -109t84.5 -31t85 31t32 109v205h213v-191q0 -174 -85 -267t-251 -93t-251 93t-85 267v746q0 174 85 267t251 93t251 -93t85 -267v-140h-213v154q0 78 -31.5 109.5t-85.5 31.5q-53 0 -84.5 -31.5t-31.5 -109.5v-275z" />
    <glyph glyph-name="afii10054" unicode="&#x405;" horiz-adv-x="765" 
d="M53 1090q0 174 83 267t249 93t249 -93t83 -267v-56h-213v70q0 78 -30 109.5t-83 31.5t-82.5 -31.5t-29.5 -109.5q0 -74 32.5 -130t81.5 -106.5t105.5 -100.5t105.5 -109.5t82 -135.5t33 -178q0 -174 -85 -267t-251 -93t-251 93t-85 267v98h213v-112q0 -78 32 -109t85 -31
t85 31t32 109q0 74 -33 130t-82 106t-105.5 100.5t-105.5 110t-82 135.5t-33 178z" />
    <glyph glyph-name="afii10055" unicode="&#x406;" horiz-adv-x="389" 
d="M82 1434h225v-1434h-225v1434z" />
    <glyph glyph-name="afii10056" unicode="&#x407;" horiz-adv-x="536" 
d="M156 1434h225v-1434h-225v1434zM209 1712v-209h-209v209h209zM537 1712v-209h-209v209h209z" />
    <glyph glyph-name="afii10057" unicode="&#x408;" horiz-adv-x="524" 
d="M20 205q18 -2 39 -2h39q53 0 91 26.5t38 110.5v1094h226v-1078q0 -109 -27 -178t-72 -109t-103 -56.5t-122 -16.5h-55.5t-53.5 4v205z" />
    <glyph glyph-name="afii10058" unicode="&#x409;" horiz-adv-x="1435" 
d="M717 0v1229h-262v-873q0 -109 -27 -178t-72 -109t-103 -56.5t-122 -16.5h-55.5t-52.5 4v205q18 -2 38.5 -2h38.5q53 0 91 26.5t38 110.5v1094h713v-539h107q170 0 252.5 -90t82.5 -264v-187q0 -174 -82.5 -264t-252.5 -90h-332zM1049 205q53 0 81.5 28.5t28.5 106.5v215
q0 78 -28.5 106.5t-81.5 28.5h-107v-485h107z" />
    <glyph glyph-name="afii10059" unicode="&#x40a;" horiz-adv-x="1286" 
d="M563 0v688h-256v-688h-225v1434h225v-541h256v541h230v-539h106q170 0 253 -90t83 -264v-187q0 -174 -83 -264t-253 -90h-336zM899 205q53 0 82 28.5t29 106.5v215q0 78 -29 106.5t-82 28.5h-106v-485h106z" />
    <glyph glyph-name="afii10060" unicode="&#x40b;" horiz-adv-x="868" 
d="M496 1436v-168h-138v-385q29 10 58.5 13t64.5 3q166 0 251 -93t85 -267v-539h-225v553q0 78 -32 108.5t-85 30.5q-51 0 -82 -27.5t-35 -95.5v-569h-225v1268h-133v168h496z" />
    <glyph glyph-name="afii10061" unicode="&#x40c;" horiz-adv-x="847" 
d="M377 571l-70 -131v-440h-225v1434h225v-625l299 625h221l-313 -639l313 -795h-231zM686 1743l-221 -240h-160l148 240h233z" />
    <glyph glyph-name="afii10062" unicode="&#x40e;" horiz-adv-x="964" 
d="M154 205q18 -2 38.5 -2h38.5q27 0 50.5 6t41 22.5t26.5 47t9 77.5l-327 1078h225l248 -840l205 840h225l-295 -1057q-39 -147 -79 -226t-85 -113t-97 -38t-116 -4h-55.5t-52.5 4v205zM737 1681v-168h-495v168h495z" />
    <glyph glyph-name="afii10145" unicode="&#x40f;" horiz-adv-x="874" 
d="M322 0h-240v1434h225v-1229h256v1229h230v-1434h-242v-164h-229v164z" />
    <glyph glyph-name="afii10017" unicode="&#x410;" horiz-adv-x="829" 
d="M809 0h-227l-39 260h-277l-39 -260h-207l230 1434h330zM295 455h217l-109 725z" />
    <glyph glyph-name="afii10018" unicode="&#x411;" horiz-adv-x="800" 
d="M307 895h107q170 0 253 -90t83 -264v-187q0 -174 -83 -264t-253 -90h-332v1434h596v-205h-371v-334zM414 205q53 0 81.5 28.5t28.5 106.5v215q0 78 -28.5 106.5t-81.5 28.5h-107v-485h107z" />
    <glyph glyph-name="afii10019" unicode="&#x412;" horiz-adv-x="829" 
d="M422 1434q176 0 255 -82t79 -248v-51q0 -111 -35 -182.5t-111 -106.5q92 -35 130 -114t38 -193v-117q0 -166 -86 -253t-256 -87h-354v1434h340zM307 645v-440h129q57 0 87 30.5t30 110.5v125q0 100 -34 137t-111 37h-101zM307 1229v-379h88q63 0 99 32.5t36 118.5v80
q0 78 -27.5 113t-86.5 35h-109z" />
    <glyph glyph-name="afii10020" unicode="&#x413;" horiz-adv-x="698" 
d="M307 0h-225v1434h596v-205h-371v-1229z" />
    <glyph glyph-name="afii10021" unicode="&#x414;" horiz-adv-x="1044" 
d="M0 205q18 -2 38.5 -2h39.5q53 0 91 26.5t38 110.5v1094h713v-1229h114v-369h-229v164h-576v-164h-229v369zM432 356q0 -90 -18 -151h280v1024h-262v-873z" />
    <glyph glyph-name="afii10022" unicode="&#x415;" horiz-adv-x="747" 
d="M307 829h309v-204h-309v-420h389v-205h-614v1434h614v-205h-389v-400z" />
    <glyph glyph-name="afii10024" unicode="&#x416;" horiz-adv-x="1304" 
d="M252 0h-232l314 795l-314 639h222l297 -621v621h227v-621l297 621h221l-313 -639l313 -795h-231l-219 571l-68 -127v-444h-227v444l-68 127z" />
    <glyph glyph-name="afii10025" unicode="&#x417;" horiz-adv-x="794" 
d="M508 1081q0 96 -32 130t-85 34t-85 -31.5t-32 -109.5v-154h-213v140q0 174 85 267t251 93t251 -93t85 -267v-37q0 -229 -158 -295q86 -37 122 -114t36 -187v-113q0 -174 -85 -267t-251 -93t-251 93t-85 267v180h213v-194q0 -78 32 -110t85 -32t85 33t32 129v113
q0 100 -35 141t-113 41h-34v205h47q63 0 99 32.5t36 118.5v80z" />
    <glyph glyph-name="afii10026" unicode="&#x418;" horiz-adv-x="878" 
d="M313 0h-231v1434h201v-859l231 859h283v-1434h-203v1038z" />
    <glyph glyph-name="afii10027" unicode="&#x419;" horiz-adv-x="878" 
d="M313 0h-231v1434h201v-859l231 859h283v-1434h-203v1038zM690 1681v-168h-495v168h495z" />
    <glyph glyph-name="afii10028" unicode="&#x41a;" horiz-adv-x="847" 
d="M377 571l-70 -131v-440h-225v1434h225v-625l299 625h221l-313 -639l313 -795h-231z" />
    <glyph glyph-name="afii10029" unicode="&#x41b;" horiz-adv-x="1021" 
d="M715 1229h-262v-873q0 -109 -27 -178t-72 -109t-103 -56.5t-122 -16.5h-55.5t-53.5 4v205q18 -2 39 -2h39q53 0 91 26.5t38 110.5v1094h713v-1434h-225v1229z" />
    <glyph glyph-name="afii10030" unicode="&#x41c;" horiz-adv-x="1110" 
d="M561 416l154 1018h313v-1434h-213v1028l-156 -1028h-213l-167 1014v-1014h-197v1434h313z" />
    <glyph glyph-name="afii10031" unicode="&#x41d;" horiz-adv-x="874" 
d="M307 0h-225v1434h225v-615h256v615h230v-1434h-230v614h-256v-614z" />
    <glyph glyph-name="afii10032" unicode="&#x41e;" horiz-adv-x="806" 
d="M287 330q0 -78 31.5 -110t84.5 -32t85 32t32 110v774q0 78 -31.5 109.5t-85.5 31.5q-53 0 -84.5 -31.5t-31.5 -109.5v-774zM61 1090q0 174 88.5 267t253.5 93q166 0 254 -93t88 -267v-746q0 -174 -88 -267t-254 -93t-254 93t-88 267v746z" />
    <glyph glyph-name="afii10033" unicode="&#x41f;" horiz-adv-x="874" 
d="M307 0h-225v1434h711v-1434h-230v1229h-256v-1229z" />
    <glyph glyph-name="afii10034" unicode="&#x420;" horiz-adv-x="770" 
d="M414 1434q170 0 253 -90.5t83 -264.5v-186q0 -174 -83 -264t-253 -90h-107v-539h-225v1434h332zM307 1229v-486h107q53 0 81.5 29t28.5 107v215q0 78 -28.5 106.5t-81.5 28.5h-107z" />
    <glyph glyph-name="afii10035" unicode="&#x421;" horiz-adv-x="794" 
d="M733 535v-191q0 -174 -85 -267t-251 -93t-251 93t-85 267v746q0 174 85 267t251 93t251 -93t85 -267v-140h-213v154q0 78 -31.5 109.5t-85.5 31.5q-53 0 -84.5 -31.5t-31.5 -109.5v-774q0 -78 31.5 -109t84.5 -31t85 31t32 109v205h213z" />
    <glyph glyph-name="afii10036" unicode="&#x422;" horiz-adv-x="737" 
d="M20 1434h697v-205h-236v-1229h-225v1229h-236v205z" />
    <glyph glyph-name="afii10037" unicode="&#x423;" horiz-adv-x="944" 
d="M143 205q18 -2 39 -2h39q27 0 50.5 6t41 22.5t26.5 47t9 77.5l-328 1078h226l248 -840l204 840h226l-295 -1057q-39 -147 -79 -226t-85 -113t-97.5 -38t-115.5 -4h-55.5t-53.5 4v205z" />
    <glyph glyph-name="afii10038" unicode="&#x424;" horiz-adv-x="1171" 
d="M473 252h-106q-170 0 -253 90t-83 264v391q0 174 83 264.5t253 90.5h106v82h225v-82h107q170 0 253 -90.5t83 -264.5v-391q0 -174 -83 -264t-253 -90h-107v-252h-225v252zM698 1147v-690h107q53 0 81.5 28.5t28.5 106.5v420q0 78 -28.5 106.5t-81.5 28.5h-107zM367 1147
q-53 0 -82 -28.5t-29 -106.5v-420q0 -78 28.5 -106.5t82.5 -28.5h106v690h-106z" />
    <glyph glyph-name="afii10039" unicode="&#x425;" horiz-adv-x="880" 
d="M834 1434l-236 -697l252 -737h-238l-184 567l-186 -567h-211l252 737l-236 697h234l170 -529l174 529h209z" />
    <glyph glyph-name="afii10040" unicode="&#x426;" horiz-adv-x="907" 
d="M307 205h256v1229h230v-1229h114v-369h-229v164h-596v1434h225v-1229z" />
    <glyph glyph-name="afii10041" unicode="&#x427;" horiz-adv-x="796" 
d="M256 1434v-553q0 -78 31.5 -109t85.5 -31q51 0 81.5 28t34.5 95v570h226v-1434h-226v551q-29 -10 -58.5 -13t-63.5 -3q-166 0 -251 93t-85 267v539h225z" />
    <glyph glyph-name="afii10042" unicode="&#x428;" horiz-adv-x="1206" 
d="M715 205h182v1229h227v-1434h-1042v1434h223v-1229h184v1229h226v-1229z" />
    <glyph glyph-name="afii10043" unicode="&#x429;" horiz-adv-x="1241" 
d="M82 1434h223v-1229h184v1229h226v-1229h182v1229h227v-1229h117v-369h-229v164h-930v1434z" />
    <glyph glyph-name="afii10044" unicode="&#x42a;" horiz-adv-x="872" 
d="M184 1229h-184v205h412v-539h104q170 0 253 -90t83 -264v-187q0 -174 -83 -264t-253 -90h-332v1229zM412 690v-485h104q53 0 82 28.5t29 106.5v215q0 78 -29 106.5t-82 28.5h-104z" />
    <glyph glyph-name="afii10045" unicode="&#x42b;" horiz-adv-x="1167" 
d="M414 205q53 0 81.5 28.5t28.5 106.5v215q0 78 -28.5 106.5t-81.5 28.5h-107v-485h107zM82 0v1434h225v-539h107q170 0 253 -90t83 -264v-187q0 -174 -83 -264t-253 -90h-332zM860 1434h225v-1434h-225v1434z" />
    <glyph glyph-name="afii10046" unicode="&#x42c;" horiz-adv-x="770" 
d="M414 205q53 0 81.5 28.5t28.5 106.5v215q0 78 -28.5 106.5t-81.5 28.5h-107v-485h107zM82 0v1434h225v-539h107q170 0 253 -90t83 -264v-187q0 -174 -83 -264t-253 -90h-332z" />
    <glyph glyph-name="afii10047" unicode="&#x42d;" horiz-adv-x="794" 
d="M508 1104q0 78 -32 109.5t-85 31.5t-85 -31.5t-32 -109.5v-154h-213v140q0 174 85 267t251 93t251 -93t85 -267v-746q0 -174 -85 -267t-251 -93t-251 93t-85 267v191h213v-205q0 -78 32 -109t85 -31t85 31t32 109v295h-309v204h309v275z" />
    <glyph glyph-name="afii10048" unicode="&#x42e;" horiz-adv-x="1187" 
d="M307 0h-225v1434h225v-615h135v271q0 174 88 267t254 93t254 -93t88 -267v-746q0 -174 -88 -267t-254 -93t-254 93t-88 267v270h-135v-614zM668 330q0 -78 31.5 -110t84.5 -32t85 32t32 110v774q0 78 -31.5 109.5t-85.5 31.5q-53 0 -84.5 -31.5t-31.5 -109.5v-774z" />
    <glyph glyph-name="afii10049" unicode="&#x42f;" horiz-adv-x="823" 
d="M408 1229q-59 0 -87 -35t-28 -113v-141q0 -86 36 -119t99 -33h88v441h-108zM41 0q16 41 20.5 81t4.5 93v221q0 113 31.5 192t117.5 113q-147 70 -147 291v113q0 166 78.5 248t254.5 82h340v-1434h-225v584h-78q-78 0 -112.5 -41t-34.5 -142v-225q0 -43 -1 -71.5t-4 -47
t-7.5 -31t-8.5 -26.5h-229z" />
    <glyph glyph-name="afii10065" unicode="&#x430;" horiz-adv-x="829" 
d="M809 0h-227l-39 260h-277l-39 -260h-207l230 1434h330zM295 455h217l-109 725z" />
    <glyph glyph-name="afii10066" unicode="&#x431;" horiz-adv-x="800" 
d="M307 895h107q170 0 253 -90t83 -264v-187q0 -174 -83 -264t-253 -90h-332v1434h596v-205h-371v-334zM414 205q53 0 81.5 28.5t28.5 106.5v215q0 78 -28.5 106.5t-81.5 28.5h-107v-485h107z" />
    <glyph glyph-name="afii10067" unicode="&#x432;" horiz-adv-x="829" 
d="M422 1434q176 0 255 -82t79 -248v-51q0 -111 -35 -182.5t-111 -106.5q92 -35 130 -114t38 -193v-117q0 -166 -86 -253t-256 -87h-354v1434h340zM307 645v-440h129q57 0 87 30.5t30 110.5v125q0 100 -34 137t-111 37h-101zM307 1229v-379h88q63 0 99 32.5t36 118.5v80
q0 78 -27.5 113t-86.5 35h-109z" />
    <glyph glyph-name="afii10068" unicode="&#x433;" horiz-adv-x="698" 
d="M307 0h-225v1434h596v-205h-371v-1229z" />
    <glyph glyph-name="afii10069" unicode="&#x434;" horiz-adv-x="1044" 
d="M0 205q18 -2 38.5 -2h39.5q53 0 91 26.5t38 110.5v1094h713v-1229h114v-369h-229v164h-576v-164h-229v369zM432 356q0 -90 -18 -151h280v1024h-262v-873z" />
    <glyph glyph-name="afii10070" unicode="&#x435;" horiz-adv-x="747" 
d="M307 829h309v-204h-309v-420h389v-205h-614v1434h614v-205h-389v-400z" />
    <glyph glyph-name="afii10072" unicode="&#x436;" horiz-adv-x="1304" 
d="M252 0h-232l314 795l-314 639h222l297 -621v621h227v-621l297 621h221l-313 -639l313 -795h-231l-219 571l-68 -127v-444h-227v444l-68 127z" />
    <glyph glyph-name="afii10073" unicode="&#x437;" horiz-adv-x="794" 
d="M508 1081q0 96 -32 130t-85 34t-85 -31.5t-32 -109.5v-154h-213v140q0 174 85 267t251 93t251 -93t85 -267v-37q0 -229 -158 -295q86 -37 122 -114t36 -187v-113q0 -174 -85 -267t-251 -93t-251 93t-85 267v180h213v-194q0 -78 32 -110t85 -32t85 33t32 129v113
q0 100 -35 141t-113 41h-34v205h47q63 0 99 32.5t36 118.5v80z" />
    <glyph glyph-name="afii10074" unicode="&#x438;" horiz-adv-x="878" 
d="M313 0h-231v1434h201v-859l231 859h283v-1434h-203v1038z" />
    <glyph glyph-name="afii10075" unicode="&#x439;" horiz-adv-x="878" 
d="M313 0h-231v1434h201v-859l231 859h283v-1434h-203v1038zM690 1681v-168h-495v168h495z" />
    <glyph glyph-name="afii10076" unicode="&#x43a;" horiz-adv-x="847" 
d="M377 571l-70 -131v-440h-225v1434h225v-625l299 625h221l-313 -639l313 -795h-231z" />
    <glyph glyph-name="afii10077" unicode="&#x43b;" horiz-adv-x="1021" 
d="M715 1229h-262v-873q0 -109 -27 -178t-72 -109t-103 -56.5t-122 -16.5h-55.5t-53.5 4v205q18 -2 39 -2h39q53 0 91 26.5t38 110.5v1094h713v-1434h-225v1229z" />
    <glyph glyph-name="afii10078" unicode="&#x43c;" horiz-adv-x="1110" 
d="M561 416l154 1018h313v-1434h-213v1028l-156 -1028h-213l-167 1014v-1014h-197v1434h313z" />
    <glyph glyph-name="afii10079" unicode="&#x43d;" horiz-adv-x="874" 
d="M307 0h-225v1434h225v-615h256v615h230v-1434h-230v614h-256v-614z" />
    <glyph glyph-name="afii10080" unicode="&#x43e;" horiz-adv-x="806" 
d="M287 330q0 -78 31.5 -110t84.5 -32t85 32t32 110v774q0 78 -31.5 109.5t-85.5 31.5q-53 0 -84.5 -31.5t-31.5 -109.5v-774zM61 1090q0 174 88.5 267t253.5 93q166 0 254 -93t88 -267v-746q0 -174 -88 -267t-254 -93t-254 93t-88 267v746z" />
    <glyph glyph-name="afii10081" unicode="&#x43f;" horiz-adv-x="874" 
d="M307 0h-225v1434h711v-1434h-230v1229h-256v-1229z" />
    <glyph glyph-name="afii10082" unicode="&#x440;" horiz-adv-x="770" 
d="M414 1434q170 0 253 -90.5t83 -264.5v-186q0 -174 -83 -264t-253 -90h-107v-539h-225v1434h332zM307 1229v-486h107q53 0 81.5 29t28.5 107v215q0 78 -28.5 106.5t-81.5 28.5h-107z" />
    <glyph glyph-name="afii10083" unicode="&#x441;" horiz-adv-x="794" 
d="M733 535v-191q0 -174 -85 -267t-251 -93t-251 93t-85 267v746q0 174 85 267t251 93t251 -93t85 -267v-140h-213v154q0 78 -31.5 109.5t-85.5 31.5q-53 0 -84.5 -31.5t-31.5 -109.5v-774q0 -78 31.5 -109t84.5 -31t85 31t32 109v205h213z" />
    <glyph glyph-name="afii10084" unicode="&#x442;" horiz-adv-x="737" 
d="M20 1434h697v-205h-236v-1229h-225v1229h-236v205z" />
    <glyph glyph-name="afii10085" unicode="&#x443;" horiz-adv-x="944" 
d="M143 205q18 -2 39 -2h39q27 0 50.5 6t41 22.5t26.5 47t9 77.5l-328 1078h226l248 -840l204 840h226l-295 -1057q-39 -147 -79 -226t-85 -113t-97.5 -38t-115.5 -4h-55.5t-53.5 4v205z" />
    <glyph glyph-name="afii10086" unicode="&#x444;" horiz-adv-x="1171" 
d="M473 252h-106q-170 0 -253 90t-83 264v391q0 174 83 264.5t253 90.5h106v82h225v-82h107q170 0 253 -90.5t83 -264.5v-391q0 -174 -83 -264t-253 -90h-107v-252h-225v252zM698 1147v-690h107q53 0 81.5 28.5t28.5 106.5v420q0 78 -28.5 106.5t-81.5 28.5h-107zM367 1147
q-53 0 -82 -28.5t-29 -106.5v-420q0 -78 28.5 -106.5t82.5 -28.5h106v690h-106z" />
    <glyph glyph-name="afii10087" unicode="&#x445;" horiz-adv-x="880" 
d="M834 1434l-236 -697l252 -737h-238l-184 567l-186 -567h-211l252 737l-236 697h234l170 -529l174 529h209z" />
    <glyph glyph-name="afii10088" unicode="&#x446;" horiz-adv-x="907" 
d="M307 205h256v1229h230v-1229h114v-369h-229v164h-596v1434h225v-1229z" />
    <glyph glyph-name="afii10089" unicode="&#x447;" horiz-adv-x="796" 
d="M256 1434v-553q0 -78 31.5 -109t85.5 -31q51 0 81.5 28t34.5 95v570h226v-1434h-226v551q-29 -10 -58.5 -13t-63.5 -3q-166 0 -251 93t-85 267v539h225z" />
    <glyph glyph-name="afii10090" unicode="&#x448;" horiz-adv-x="1206" 
d="M715 205h182v1229h227v-1434h-1042v1434h223v-1229h184v1229h226v-1229z" />
    <glyph glyph-name="afii10091" unicode="&#x449;" horiz-adv-x="1241" 
d="M82 1434h223v-1229h184v1229h226v-1229h182v1229h227v-1229h117v-369h-229v164h-930v1434z" />
    <glyph glyph-name="afii10092" unicode="&#x44a;" horiz-adv-x="872" 
d="M184 1229h-184v205h412v-539h104q170 0 253 -90t83 -264v-187q0 -174 -83 -264t-253 -90h-332v1229zM412 690v-485h104q53 0 82 28.5t29 106.5v215q0 78 -29 106.5t-82 28.5h-104z" />
    <glyph glyph-name="afii10093" unicode="&#x44b;" horiz-adv-x="1167" 
d="M414 205q53 0 81.5 28.5t28.5 106.5v215q0 78 -28.5 106.5t-81.5 28.5h-107v-485h107zM82 0v1434h225v-539h107q170 0 253 -90t83 -264v-187q0 -174 -83 -264t-253 -90h-332zM860 1434h225v-1434h-225v1434z" />
    <glyph glyph-name="afii10094" unicode="&#x44c;" horiz-adv-x="770" 
d="M414 205q53 0 81.5 28.5t28.5 106.5v215q0 78 -28.5 106.5t-81.5 28.5h-107v-485h107zM82 0v1434h225v-539h107q170 0 253 -90t83 -264v-187q0 -174 -83 -264t-253 -90h-332z" />
    <glyph glyph-name="afii10095" unicode="&#x44d;" horiz-adv-x="794" 
d="M508 1104q0 78 -32 109.5t-85 31.5t-85 -31.5t-32 -109.5v-154h-213v140q0 174 85 267t251 93t251 -93t85 -267v-746q0 -174 -85 -267t-251 -93t-251 93t-85 267v191h213v-205q0 -78 32 -109t85 -31t85 31t32 109v295h-309v204h309v275z" />
    <glyph glyph-name="afii10096" unicode="&#x44e;" horiz-adv-x="1187" 
d="M307 0h-225v1434h225v-615h135v271q0 174 88 267t254 93t254 -93t88 -267v-746q0 -174 -88 -267t-254 -93t-254 93t-88 267v270h-135v-614zM668 330q0 -78 31.5 -110t84.5 -32t85 32t32 110v774q0 78 -31.5 109.5t-85.5 31.5q-53 0 -84.5 -31.5t-31.5 -109.5v-774z" />
    <glyph glyph-name="afii10097" unicode="&#x44f;" horiz-adv-x="823" 
d="M408 1229q-59 0 -87 -35t-28 -113v-141q0 -86 36 -119t99 -33h88v441h-108zM41 0q16 41 20.5 81t4.5 93v221q0 113 31.5 192t117.5 113q-147 70 -147 291v113q0 166 78.5 248t254.5 82h340v-1434h-225v584h-78q-78 0 -112.5 -41t-34.5 -142v-225q0 -43 -1 -71.5t-4 -47
t-7.5 -31t-8.5 -26.5h-229z" />
    <glyph glyph-name="afii10071" unicode="&#x451;" horiz-adv-x="747" 
d="M307 829h309v-204h-309v-420h389v-205h-614v1434h614v-205h-389v-400zM328 1712v-209h-209v209h209zM655 1712v-209h-209v209h209z" />
    <glyph glyph-name="afii10099" unicode="&#x452;" horiz-adv-x="868" 
d="M426 2l18 -2h19q53 0 91 26.5t38 110.5v416q0 78 -32 108.5t-85 30.5q-49 0 -81 -26.5t-36 -90.5v-575h-225v1145h-133v168h133v123h225v-123h138v-168h-138v-262q29 10 58.5 13t64.5 3q166 0 251 -93t85 -267v-385q0 -109 -26.5 -178.5t-71.5 -109.5t-103.5 -56.5
t-121.5 -16.5h-23.5h-12.5t-11.5 1t-20.5 3v205z" />
    <glyph glyph-name="afii10100" unicode="&#x453;" horiz-adv-x="704" 
d="M307 0h-225v1434h596v-205h-371v-1229zM686 1743l-221 -240h-160l148 240h233z" />
    <glyph glyph-name="afii10101" unicode="&#x454;" horiz-adv-x="794" 
d="M287 829h309v-204h-309v-295q0 -78 31.5 -109t84.5 -31t85 31t32 109v205h213v-191q0 -174 -85 -267t-251 -93t-251 93t-85 267v746q0 174 85 267t251 93t251 -93t85 -267v-140h-213v154q0 78 -31.5 109.5t-85.5 31.5q-53 0 -84.5 -31.5t-31.5 -109.5v-275z" />
    <glyph glyph-name="afii10102" unicode="&#x455;" horiz-adv-x="765" 
d="M53 1090q0 174 83 267t249 93t249 -93t83 -267v-56h-213v70q0 78 -30 109.5t-83 31.5t-82.5 -31.5t-29.5 -109.5q0 -74 32.5 -130t81.5 -106.5t105.5 -100.5t105.5 -109.5t82 -135.5t33 -178q0 -174 -85 -267t-251 -93t-251 93t-85 267v98h213v-112q0 -78 32 -109t85 -31
t85 31t32 109q0 74 -33 130t-82 106t-105.5 100.5t-105.5 110t-82 135.5t-33 178z" />
    <glyph glyph-name="afii10103" unicode="&#x456;" horiz-adv-x="389" 
d="M82 1434h225v-1434h-225v1434z" />
    <glyph glyph-name="afii10104" unicode="&#x457;" horiz-adv-x="536" 
d="M156 1434h225v-1434h-225v1434zM209 1712v-209h-209v209h209zM537 1712v-209h-209v209h209z" />
    <glyph glyph-name="afii10105" unicode="&#x458;" horiz-adv-x="524" 
d="M20 205q18 -2 39 -2h39q53 0 91 26.5t38 110.5v1094h226v-1078q0 -109 -27 -178t-72 -109t-103 -56.5t-122 -16.5h-55.5t-53.5 4v205z" />
    <glyph glyph-name="afii10106" unicode="&#x459;" horiz-adv-x="1402" 
d="M715 0v1229h-262v-873q0 -109 -27 -178t-72 -109t-103 -56.5t-122 -16.5h-55.5t-53.5 4v205q18 -2 39 -2h39q53 0 91 26.5t38 110.5v1094h713v-539h107q170 0 252.5 -90t82.5 -264v-187q0 -174 -82.5 -264t-252.5 -90h-332zM1047 205q53 0 81.5 28.5t28.5 106.5v215
q0 78 -28.5 106.5t-81.5 28.5h-107v-485h107z" />
    <glyph glyph-name="afii10107" unicode="&#x45a;" horiz-adv-x="1286" 
d="M563 0v688h-256v-688h-225v1434h225v-541h256v541h230v-539h106q170 0 253 -90t83 -264v-187q0 -174 -83 -264t-253 -90h-336zM899 205q53 0 82 28.5t29 106.5v215q0 78 -29 106.5t-82 28.5h-106v-485h106z" />
    <glyph glyph-name="afii10108" unicode="&#x45b;" horiz-adv-x="868" 
d="M358 1436v-123h138v-168h-138v-262q29 10 58.5 13t64.5 3q166 0 251 -93t85 -267v-539h-225v553q0 78 -32 108.5t-85 30.5q-49 0 -81 -26.5t-36 -90.5v-575h-225v1145h-133v168h133v123h225z" />
    <glyph glyph-name="afii10109" unicode="&#x45c;" horiz-adv-x="847" 
d="M377 571l-70 -131v-440h-225v1434h225v-625l299 625h221l-313 -639l313 -795h-231zM686 1743l-221 -240h-160l148 240h233z" />
    <glyph glyph-name="afii10110" unicode="&#x45e;" horiz-adv-x="964" 
d="M154 205q18 -2 38.5 -2h38.5q27 0 50.5 6t41 22.5t26.5 47t9 77.5l-327 1078h225l248 -840l205 840h225l-295 -1057q-39 -147 -79 -226t-85 -113t-97 -38t-116 -4h-55.5t-52.5 4v205zM737 1681v-168h-495v168h495z" />
    <glyph glyph-name="afii10193" unicode="&#x45f;" horiz-adv-x="874" 
d="M322 0h-240v1434h225v-1229h256v1229h230v-1434h-242v-164h-229v164z" />
    <glyph glyph-name="afii10050" unicode="&#x490;" horiz-adv-x="698" 
d="M307 0h-225v1434h367v163h229v-368h-371v-1229z" />
    <glyph glyph-name="afii10098" unicode="&#x491;" horiz-adv-x="698" 
d="M307 0h-225v1434h367v163h229v-368h-371v-1229z" />
    <glyph glyph-name="uni2000" unicode="&#x2000;" horiz-adv-x="919" 
 />
    <glyph glyph-name="uni2001" unicode="&#x2001;" horiz-adv-x="1839" 
 />
    <glyph glyph-name="uni2002" unicode="&#x2002;" horiz-adv-x="919" 
 />
    <glyph glyph-name="uni2003" unicode="&#x2003;" horiz-adv-x="1839" 
 />
    <glyph glyph-name="uni2004" unicode="&#x2004;" horiz-adv-x="613" 
 />
    <glyph glyph-name="uni2005" unicode="&#x2005;" horiz-adv-x="459" 
 />
    <glyph glyph-name="uni2006" unicode="&#x2006;" horiz-adv-x="306" 
 />
    <glyph glyph-name="uni2007" unicode="&#x2007;" horiz-adv-x="306" 
 />
    <glyph glyph-name="uni2008" unicode="&#x2008;" horiz-adv-x="229" 
 />
    <glyph glyph-name="uni2009" unicode="&#x2009;" horiz-adv-x="367" 
 />
    <glyph glyph-name="uni200A" unicode="&#x200a;" horiz-adv-x="102" 
 />
    <glyph glyph-name="uni2010" unicode="&#x2010;" horiz-adv-x="552" 
d="M72 819h409v-205h-409v205z" />
    <glyph glyph-name="uni2011" unicode="&#x2011;" horiz-adv-x="552" 
d="M72 819h409v-205h-409v205z" />
    <glyph glyph-name="figuredash" unicode="&#x2012;" horiz-adv-x="552" 
d="M72 819h409v-205h-409v205z" />
    <glyph glyph-name="endash" unicode="&#x2013;" horiz-adv-x="1024" 
d="M0 809h1024v-184h-1024v184z" />
    <glyph glyph-name="emdash" unicode="&#x2014;" horiz-adv-x="2048" 
d="M0 809h2048v-184h-2048v184z" />
    <glyph glyph-name="quoteleft" unicode="&#x2018;" horiz-adv-x="380" 
d="M299 1229v-217h-217v194l98 228h92l-59 -205h86z" />
    <glyph glyph-name="quoteright" unicode="&#x2019;" horiz-adv-x="380" 
d="M82 1217v217h217v-195l-98 -227h-92l59 205h-86z" />
    <glyph glyph-name="quotesinglbase" unicode="&#x201a;" horiz-adv-x="380" 
d="M82 0v217h217v-194l-98 -228h-92l59 205h-86z" />
    <glyph glyph-name="quotedblleft" unicode="&#x201c;" horiz-adv-x="679" 
d="M299 1229v-217h-217v194l98 228h92l-59 -205h86zM598 1229v-217h-217v194l98 228h92l-59 -205h86z" />
    <glyph glyph-name="quotedblright" unicode="&#x201d;" horiz-adv-x="679" 
d="M82 1217v217h217v-195l-98 -227h-92l59 205h-86zM381 1217v217h217v-195l-98 -227h-92l59 205h-86z" />
    <glyph glyph-name="quotedblbase" unicode="&#x201e;" horiz-adv-x="679" 
d="M82 0v217h217v-194l-98 -228h-92l59 205h-86zM381 0v217h217v-194l-98 -228h-92l59 205h-86z" />
    <glyph glyph-name="dagger" unicode="&#x2020;" 
d="M51 1075h262v359h185v-359h262v-174h-262v-1034h-185v1034h-262v174z" />
    <glyph glyph-name="daggerdbl" unicode="&#x2021;" 
d="M51 1075h262v359h185v-359h262v-174h-262v-502h262v-174h-262v-358h-185v358h-262v174h262v502h-262v174z" />
    <glyph glyph-name="bullet" unicode="&#x2022;" 
d="M121 717q0 59 22.5 111.5t60.5 90t90 60t112 22.5q59 0 111 -22.5t90 -60t60.5 -90t22.5 -111.5t-22.5 -111.5t-60.5 -90.5t-90 -60.5t-111 -22.5t-111.5 22.5t-90.5 60.5t-60.5 90.5t-22.5 111.5z" />
    <glyph glyph-name="ellipsis" unicode="&#x2026;" horiz-adv-x="978" 
d="M299 217v-217h-217v217h217zM598 217v-217h-217v217h217zM897 217v-217h-217v217h217z" />
    <glyph glyph-name="uni202F" unicode="&#x202f;" horiz-adv-x="367" 
 />
    <glyph glyph-name="perthousand" unicode="&#x2030;" horiz-adv-x="1808" 
d="M213 733q0 -90 74 -90q35 0 54 21.5t19 68.5v492q0 47 -19 68.5t-54 21.5q-74 0 -74 -90v-492zM70 1214q0 111 55 170.5t162 59.5q106 0 161.5 -59.5t55.5 -170.5v-471q0 -111 -55.5 -170t-161.5 -59t-161.5 59.5t-55.5 169.5v471zM852 1434h133l-565 -1434h-133z
M924 203q0 -90 73 -90q35 0 54.5 21.5t19.5 68.5v491q0 47 -19.5 68.5t-54.5 21.5q-74 0 -73 -90v-491zM780 684q0 111 55.5 170t161.5 59t161.5 -59t55.5 -170v-471q0 -111 -55 -170t-162 -59q-106 0 -161.5 59t-55.5 170v471zM1448 203q0 -90 74 -90q35 0 54 21.5t19 68.5
v491q0 47 -19.5 68.5t-53.5 21.5q-74 0 -74 -90v-491zM1305 684q0 111 55 170t162 59q106 0 161.5 -59t55.5 -170v-471q0 -111 -55.5 -170t-161.5 -59t-161.5 59t-55.5 170v471z" />
    <glyph glyph-name="guilsinglleft" unicode="&#x2039;" horiz-adv-x="401" 
d="M369 1264l-121 -545l121 -578h-213l-123 578l123 545h213z" />
    <glyph glyph-name="guilsinglright" unicode="&#x203a;" horiz-adv-x="401" 
d="M246 1264l123 -545l-123 -578h-213l121 578l-121 545h213z" />
    <glyph glyph-name="uni205F" unicode="&#x205f;" horiz-adv-x="459" 
 />
    <glyph glyph-name="Euro" unicode="&#x20ac;" 
d="M39 891h57v199q0 174 82 267t248 93t248 -93t82 -267v-119h-213v133q0 78 -29 109.5t-82 31.5t-81.5 -31.5t-28.5 -109.5v-213h315v-113h-315v-112h315v-113h-315v-223q0 -78 28.5 -109t81.5 -31t82 31t29 109v143h213v-129q0 -174 -82 -267t-248 -93t-248 93t-82 267
v209h-57v113h57v112h-57v113z" />
    <glyph glyph-name="trademark" unicode="&#x2122;" horiz-adv-x="1200" 
d="M854 922l96 512h199v-729h-135v518l-96 -518h-136l-108 514v-514h-125v729h199zM20 1434h443v-131h-150v-598h-143v598h-150v131z" />
    <glyph glyph-name="uni25FC" unicode="&#x25fc;" horiz-adv-x="1433" 
d="M0 1434h1434v-1434h-1434v1434z" />
  </font>
</defs>
</svg>
