<svg xmlns="http://www.w3.org/2000/svg" width="46.257" height="28.142"><g fill="#E69F44"><path d="M40.87 13.402c-.638 0-1.092.746-1.092 1.798 0 .7.243 1.054.722 1.054.656 0 1.116-.742 1.116-1.802 0-.68-.262-1.05-.746-1.05zM32.585 15.898c0 .333.197.546.504.546.573 0 .988-.547 1.011-1.338l-.313-.022c-.798 0-1.202.274-1.202.814zM31.955 1.107c-3.352 0-6.404 1.272-8.706 3.357-.468.425-.906.884-1.308 1.373h2.619c.358.436.688.894.988 1.374h-4.597c-.275.441-.526.899-.747 1.374h6.092c.208.444.392.902.549 1.373h-7.19c-.15.448-.276.906-.377 1.373h7.943c.055.256.1.516.14.778h.001l-.001.001c.036.238.065.478.089.72.504-1.281 1.531-2.081 2.831-2.081.615 0 1.341.26 1.548.342l-.231 1.427c-.503-.253-.867-.355-1.258-.355-1.051 0-1.788 1.016-1.788 2.465 0 .998.496 1.601 1.314 1.601.346 0 .73-.107 1.196-.338l-.248 1.5c-.518.141-.854.192-1.244.192-1.065 0-1.847-.54-2.218-1.467-.113.715-.283 1.411-.507 2.081h-7.19c.157.47.341.928.549 1.374h6.092c-.223.473-.471.932-.748 1.374h-4.596c.301.478.631.937.989 1.372h2.619c-.403.489-.84.948-1.309 1.374 2.301 2.085 5.354 3.356 8.705 3.356 7.162 0 12.968-5.806 12.968-12.968-.001-7.164-5.806-12.972-12.969-12.972zm3.17 16.382h-1.166l.026-.554c-.355.438-.83.647-1.475.647-.763 0-1.286-.596-1.286-1.462 0-1.303.909-2.062 2.471-2.062.159 0 .364.015.573.042.043-.178.055-.253.055-.349 0-.354-.245-.485-.902-.485-.689-.008-1.256.163-1.49.24l.196-1.203c.702-.206 1.164-.284 1.684-.284 1.209 0 1.85.543 1.848 1.569.003.274-.043.614-.113 1.06-.123.775-.385 2.438-.421 2.841zm1.878 0h-1.408l.064-.36c.245-1.657.558-3.334.734-4.989h1.294c.012.271-.051.537-.085.811.432-.633.761-.966 1.351-.844-.175.296-.409.882-.535 1.552-.79-.08-.912.559-1.415 3.83zm4.241 0l.066-.497c-.386.412-.782.59-1.297.59-1.024 0-1.7-.881-1.7-2.22 0-1.779 1.049-3.279 2.29-3.279.547 0 .96.223 1.345.73l.312-1.901h1.389l-1.072 6.578h-1.333z"/></g><g fill="#D12020"><path d="M22.056 13.238c-.446 0-.764.341-.894.955h1.545c.007-.112.149-.955-.651-.955zM10.405 15.898c0 .333.197.546.505.546.573 0 .987-.547 1.01-1.338l-.314-.022c-.797 0-1.201.274-1.201.814zM27.11 14.742c0-.712.121-1.357.34-1.913l-.01-.124-.023-.18-.056-.417c-.174.297-.408.881-.534 1.551-.79-.08-.91.559-1.414 3.83h-1.408l.064-.36c.244-1.657.558-3.334.735-4.989h1.292c.013.271-.05.537-.084.811.431-.633.76-.966 1.349-.844l-.01-.073-.035-.197-.086-.456-.012-.051h-7.941c.101-.467.227-.925.377-1.373h7.186l-.049-.146-.147-.401-.099-.25-.183-.422-.069-.154h-6.089c.222-.475.472-.933.747-1.374h4.594l-.233-.363-.073-.105-.244-.343-.112-.151-.324-.412h-2.619c.403-.488.84-.948 1.308-1.373l.001-.001c-2.301-2.086-5.355-3.357-8.705-3.357-7.163 0-12.969 5.807-12.969 12.969 0 7.162 5.807 12.968 12.969 12.968 3.356 0 6.413-1.274 8.716-3.366l.024-.023.381-.363.126-.128.267-.28.135-.147.287-.331.078-.091h-2.619c-.359-.435-.689-.894-.989-1.372h4.593l.064-.1.057-.094.283-.492.001-.003.263-.513.036-.073.045-.1h-6.088c-.208-.445-.392-.904-.549-1.374h7.186l.06-.177.051-.163.125-.442.036-.134.136-.59.103-.576c-.157-.388-.242-.848-.242-1.368zm-20.064 2.747l.807-5.057-1.801 5.057h-.96l-.118-5.027-.848 5.027h-1.317l1.101-6.578h2.024l.057 4.072 1.366-4.072h2.187l-1.089 6.578h-1.409zm4.733 0l.027-.554c-.356.438-.831.647-1.476.647-.763 0-1.286-.596-1.286-1.462 0-1.303.91-2.062 2.471-2.062.16 0 .364.015.574.042.044-.178.055-.253.055-.349 0-.354-.245-.485-.903-.485-.689-.008-1.257.163-1.49.24l.196-1.203c.702-.206 1.165-.284 1.685-.284 1.209 0 1.849.543 1.848 1.569.002.274-.043.614-.114 1.06-.122.774-.384 2.437-.421 2.84h-1.166zm4.122-3.185c.705.324.993.755.993 1.49 0 1.222-.686 1.787-2.173 1.787-.859-.024-1.145-.088-1.464-.158l.193-1.235c.45.146.841.211 1.261.211.558 0 .809-.151.809-.484 0-.243-.088-.322-.658-.59-.744-.351-1.072-.817-1.072-1.494-.005-.988.54-1.811 2.115-1.811.323 0 .875.047 1.24.105l-.201 1.24c-.358-.05-.735-.081-1.012-.081-.455 0-.689.149-.689.438 0 .25.068.31.658.582zm3.744-.879h-.721c-.162 1.018-.395 2.285-.397 2.453 0 .277.147.396.482.396.161 0 .285-.015.38-.05l-.187 1.184c-.385.121-.686.173-1.011.173-.719 0-1.113-.413-1.113-1.174-.009-.238.104-.859.194-1.427.081-.5.61-3.65.61-3.65h1.4l-.164.81h.719l-.192 1.285zm2.626 2.947c.501 0 .953-.104 1.456-.338l-.233 1.331c-.481.147-.945.217-1.436.216-1.567-.001-2.383-.819-2.383-2.386 0-1.829 1.038-3.175 2.448-3.175 1.154 0 1.892.753 1.892 1.936 0 .393-.052.775-.173 1.315h-2.787c-.095.777.402 1.101 1.216 1.101z"/></g></svg>