<svg xmlns="http://www.w3.org/2000/svg" width="27.455" height="28.748"><path fill="#E08B44" d="M21.18 19.835c-.255-.095-.278.206-.214.401.142.458.334.809.475.879.135.082.294-.107.193-.565-.043-.199-.194-.614-.454-.715zm-2.012.849l-.011-.006-.019-.005-.024-.009-.014-.002-.039-.012c-.161-.028-.321-.004-.453.082-.301.205-.347.667-.1 1.036.115.167.269.283.435.347l.013.004.017.005.023.006.015.005.037.009c.16.032.32.009.454-.081.303-.205.349-.665.102-1.033-.115-.169-.269-.287-.436-.346zm7.142 7.256c-.734-1.494-2.037-2.591-3.448-3.432-.489-.292-1.042-.497-1.523-.655-1.107-.359-2.179-.441-3.429-.655-1.016-.174-1.818-.591-2.679-1.176-.448-.307-.815-.727-1.121-1.173-.057-.09-.344-.438-.315-.558 0 0-.2.799.196 1.921-3.634-.163-6.82-2.178-8.28-4.621-2.687-4.496-1.74-9.944 1.842-12.35 3.581-2.407 9.041-.709 11.963 3.635 1.835 2.727 2.304 5.899 1.518 8.479l-.019.059c-1.553-1.13-2.971-.553-2.971-.553 1.556-.161 2.787 1.078 2.787 1.078.181.161.354.339.512.536l.107.149c.407.553.662 1.169.77 1.793 3.09-3.92 3.601-9.349.866-13.566-3.483-5.374-10.91-6.747-16.583-3.069-5.676 3.68-7.452 11.016-3.967 16.39 2.862 4.421 9.577 5.77 13.426 4.551 1.455-.457 6.438-.893 9.907 3.204 0 0 .3.343.463.733 0 0 .048.137.177.071.034-.019.129-.13-.199-.791z"/></svg>