<svg xmlns="http://www.w3.org/2000/svg" width="28.13" height="28.427"><g fill="#466B4A"><path d="M24.502 6.641c-.147-.222-.301-.44-.462-.653l-.217-.275-.12-.146-14.158 8.142-6.868-3.949c-.093.302-.175.609-.245.92l-.087.423 7.199 4.142 14.958-8.604zM20.473 2.827c-.457-.268-.933-.507-1.424-.714l-9.504 5.467-4.232-2.435c-.301.332-.585.68-.848 1.043l5.081 2.924 10.927-6.285zM22.775 4.568c-.339-.326-.697-.632-1.071-.917l-12.159 6.995-5.803-3.339c-.22.386-.419.783-.596 1.19l6.4 3.68 13.229-7.609zM3.799 19.484c.878 1.507 2.066 2.793 3.462 3.788.94.669 1.979 1.206 3.071 1.586.476.166.971.303 1.471.411.706.149 1.435.236 2.179.257h.679c.398-.011.799-.043 1.202-.094 1.701-.217 3.353-.792 4.817-1.687 1.415-.865 2.626-2.006 3.572-3.335.995-1.397 1.695-3.001 2.032-4.712.044-.22.081-.442.113-.666.076-.551.116-1.114.116-1.687l-.004-.32c-.014-.502-.059-1.008-.137-1.516-.2-1.297-.603-2.556-1.199-3.721l-15.628 8.988-7.378-4.244-.027.643c-.01.796.058 1.594.203 2.38.262 1.425.763 2.745 1.456 3.929z"/></g></svg>