<svg xmlns="http://www.w3.org/2000/svg" width="43.214" height="16.994"><polygon fill="#4C70B3" points="18.733,14.642 15.54,14.642 17.535,2.378 20.729,2.378"/><path fill="#4C70B3" d="M37.968 14.642h2.932l-2.557-12.264h-2.567c-1.185 0-1.474.914-1.474.914l-4.762 11.35h3.328l.666-1.822h4.059l.375 1.822zm-3.514-4.338l1.678-4.589.944 4.589h-2.622z"/><path fill="#4C70B3" d="M29.79 5.327l.456-2.634s-1.406-.535-2.872-.535c-1.585 0-5.347.693-5.347 4.06 0 3.169 4.416 3.208 4.416 4.872s-3.961 1.366-5.268.317l-.475 2.753s1.426.693 3.604.693 5.466-1.129 5.466-4.199c0-3.189-4.456-3.486-4.456-4.872 0-1.386 3.11-1.208 4.476-.455z"/><path fill="#E59D4D" d="M9.496 9.089l-1.098-5.634s-.133-1.128-1.547-1.128h-5.141l-.06.212s2.471.512 4.841 2.431c2.266 1.833 3.005 4.119 3.005 4.119z"/><path fill="#4C70B3" d="M12.854 2.378l-3.044 8.435-.36-1.816v.001l-.008-.043c-.202-.527-1.022-2.411-2.951-3.972-.46-.373-.924-.691-1.373-.964l2.766 10.623h3.327l5.08-12.264h-3.437z"/></svg>