<svg xmlns="http://www.w3.org/2000/svg" width="28.343" height="28.559"><g fill-rule="evenodd" clip-rule="evenodd" fill="#4E79B8"><path d="M14.348 1.603c2.037 0 3.967.474 5.685 1.317.27.128.539.269.809.424l-1.194 1.069-1.795-1.856-3.029 2.702-1.799-1.963-5.642 5.085 3.617 3.987-1.421 1.25 3.563 3.993-1.413 1.247 5.091 5.667 3.022-2.782 2.613 2.982c-.52.404-1.086.784-1.709 1.136-1.89 1.078-4.073 1.694-6.397 1.694-7.147 0-12.976-5.83-12.976-12.976 0-7.148 5.828-12.976 12.975-12.976z"/><polygon points="11.983,13.759 15.069,10.98 17.847,14.066 14.762,16.844 11.983,13.759"/><polygon points="14.178,19.09 17.263,16.312 20.042,19.398 16.956,22.177 14.178,19.09"/><polygon points="9.776,8.489 12.861,5.711 15.639,8.797 12.553,11.575 9.776,8.489"/><polygon points="15.438,6.994 17.752,4.911 19.835,7.225 17.521,9.309 15.438,6.994"/><polygon points="19.549,16.538 21.864,14.454 23.948,16.769 21.634,18.852 19.549,16.538"/><polygon points="21.585,21.212 23.899,19.128 25.983,21.442 23.669,23.526 21.585,21.212"/><polygon points="22.517,10.499 24.06,9.11 25.449,10.653 23.907,12.042 22.517,10.499"/><polygon points="20.546,5.915 22.089,4.526 23.478,6.069 21.935,7.458 20.546,5.915"/><polygon points="24.49,15.083 26.033,13.694 27.422,15.236 25.879,16.625 24.49,15.083"/><polygon points="17.571,11.648 19.885,9.564 21.968,11.878 19.655,13.961 17.571,11.648"/></g></svg>