<svg xmlns="http://www.w3.org/2000/svg" width="26.548" height="28.559"><path fill="#DA7843" d="M22.996 9.841h-1.369v8.536c0 1.53-.655 2.414-2.596 2.861l-12.408 3.509s-1.057.286-1.057-.673c0-.798.945-.895 1.091-1.038l-.057.022 11.322-4.5c.927-.52 1.686-1.714 1.686-2.656v-13.459c0-2.126-2.071-1.398-2.523-1.128-.494.292-13.115 7.364-13.115 7.364-.926.52-1.684 1.717-1.684 2.66v13.408c0 .941 1.344 2.195 2.211 2.201v.001h18.5c1.11.003 2.018-.767 2.018-1.711v-13.683c0-.943-.909-1.714-2.019-1.714zm-8.946-1.024c.872-.581 1.702-.392 1.853.42.149.814-.355 1.847-1.229 2.428-.87.58-1.702.393-1.852-.42-.149-.814.354-1.848 1.228-2.428z"/></svg>