<?xml version="1.0" encoding="utf-8"?>
<!-- Generator: Adobe Illustrator 18.0.0, SVG Export Plug-In . SVG Version: 6.00 Build 0)  -->
<!DOCTYPE svg PUBLIC "-//W3C//DTD SVG 1.1//EN" "http://www.w3.org/Graphics/SVG/1.1/DTD/svg11.dtd">
<svg version="1.1" id="Layer_1" xmlns="http://www.w3.org/2000/svg" xmlns:xlink="http://www.w3.org/1999/xlink" x="0px" y="0px"
	 viewBox="0 0 1000 1000" enable-background="new 0 0 1000 1000" xml:space="preserve">
<g>
	<g>
		<path fill-rule="evenodd" clip-rule="evenodd" d="M814.7,575.4H209.4c-18.9,0-34.2,15.3-34.2,34.2v29.6
			c0,18.9,15.3,34.2,34.2,34.2h605.2c18.9,0,34.2-15.3,34.2-34.2v-29.6C848.8,590.7,833.5,575.4,814.7,575.4z M814.7,405.2H209.4
			c-18.9,0-34.2,15.3-34.2,34.2v28.7c0,18.9,15.3,34.2,34.2,34.2h605.2c18.9,0,34.2-15.3,34.2-34.2v-28.7
			C848.8,420.5,833.5,405.2,814.7,405.2z M814.7,234.1H209.4c-18.9,0-34.2,15.3-34.2,34.2v29.6c0,18.9,15.3,34.2,34.2,34.2h605.2
			c18.9,0,34.2-15.3,34.2-34.2v-29.6C848.8,249.4,833.5,234.1,814.7,234.1z"/>
	</g>
</g>
</svg>
