<?xml version="1.0" encoding="utf-8"?>
<!-- Generator: Adobe Illustrator 18.0.0, SVG Export Plug-In . SVG Version: 6.00 Build 0)  -->
<!DOCTYPE svg PUBLIC "-//W3C//DTD SVG 1.1//EN" "http://www.w3.org/Graphics/SVG/1.1/DTD/svg11.dtd">
<svg version="1.1" id="Layer_1" xmlns="http://www.w3.org/2000/svg" xmlns:xlink="http://www.w3.org/1999/xlink" x="0px" y="0px"
	 viewBox="0 0 1000 1000" enable-background="new 0 0 1000 1000" xml:space="preserve">
<g>
	<path d="M500.499,20.5C236.507,20.5,22.5,231,22.5,490.666c0,259.665,214.007,470.167,477.999,470.167
		c263.994,0,478.004-210.502,478.004-470.167C978.503,231,764.493,20.5,500.499,20.5z M500.499,895.15
		c-227.11,0-411.222-181.092-411.222-404.484c0-223.386,184.111-404.485,411.222-404.485c227.111,0,411.226,181.099,411.226,404.485
		C911.725,714.057,727.61,895.15,500.499,895.15z"/>
	<polygon points="373,708.465 752.59,490.666 373,272.867 	"/>
</g>
</svg>
