<?xml version="1.0" encoding="utf-8"?>
<!-- Generator: Adobe Illustrator 18.0.0, SVG Export Plug-In . SVG Version: 6.00 Build 0)  -->
<!DOCTYPE svg PUBLIC "-//W3C//DTD SVG 1.1//EN" "http://www.w3.org/Graphics/SVG/1.1/DTD/svg11.dtd">
<svg version="1.1" id="Layer_1" xmlns="http://www.w3.org/2000/svg" xmlns:xlink="http://www.w3.org/1999/xlink" x="0px" y="0px"
	 viewBox="0 0 512 512" enable-background="new 0 0 512 512" xml:space="preserve">
<path d="M260.948,271.801c-0.987-0.157-1.01-2.871-1.01-2.871s2.9-2.871,3.533-6.732c1.701,0,2.751-4.105,1.05-5.549
	c0.071-1.52,2.186-11.934-8.521-11.934c-10.706,0-8.592,10.414-8.521,11.934c-1.701,1.444-0.65,5.549,1.05,5.549
	c0.632,3.861,3.533,6.732,3.533,6.732s-0.022,2.714-1.01,2.871c-3.179,0.506-15.052,5.743-15.052,11.485h20h20
	C276,277.543,264.127,272.307,260.948,271.801z"/>
</svg>
