<?xml version="1.0" encoding="utf-8"?>
<!-- Generator: Adobe Illustrator 18.0.0, SVG Export Plug-In . SVG Version: 6.00 Build 0)  -->
<!DOCTYPE svg PUBLIC "-//W3C//DTD SVG 1.1//EN" "http://www.w3.org/Graphics/SVG/1.1/DTD/svg11.dtd">
<svg version="1.1" id="Layer_1" xmlns="http://www.w3.org/2000/svg" xmlns:xlink="http://www.w3.org/1999/xlink" x="0px" y="0px"
	 viewBox="0 0 1000 1000" enable-background="new 0 0 1000 1000" xml:space="preserve">
<g>
	<path fill-rule="evenodd" clip-rule="evenodd" d="M901,925.8c-17.7,0-34.6-5.6-48.9-16.2L521.7,663.3c-16.7-12.4-26.4-31.1-26-50.1
		c0.1-3.3,0.6-6.2,1.2-9.3c0.3-1.6,0.6-3.2,0.8-4.8l1.1-7.5l-5.3,5.3c-53,53.2-122.7,82.5-196.2,82.5c-75.4,0-146.3-30.5-199.6-85.7
		c-53.3-55.3-82.7-128.9-82.7-207.1s29.4-151.8,82.7-207.1c53.3-55.3,124.2-85.7,199.6-85.7c75.4,0,146.3,30.5,199.6,85.7
		c53.3,55.3,82.7,128.9,82.7,207.1c0,48.5-11.7,96.5-33.8,139l-3.1,6l6.3-2.6c10.2-4.1,20.8-6.2,31.6-6.2c17.5,0,34,5.5,48,15.9
		L959,785c16.6,12.4,26.4,31.1,26,50.1C983.9,894.7,941.9,925.8,901,925.8C901,925.8,901,925.8,901,925.8z M297,169.2
		C182.8,169.2,89.8,266,89.8,385c0,119,92.9,215.8,207.2,215.8S504.2,504,504.2,385C504.2,266,411.2,169.2,297,169.2z"/>
	<path d="M297.3,96.2c37.8,0,74.4,7.7,108.9,22.8c33.3,14.6,63.2,35.5,88.9,62.2c25.7,26.7,45.9,57.7,60,92.3
		c14.6,35.8,22,73.9,22,113.1c0,24.5-2.9,48.8-8.7,72.3c-5.6,22.8-14,44.8-24.8,65.6l-6.3,12l12.6-5.1c9.9-4,20.2-6,30.7-6
		c16.9,0,33,5.3,46.5,15.4L957.5,787c16,11.9,25.4,29.9,25,48.1c-0.5,26.8-9.5,49.5-26,65.7c-14.9,14.6-34.6,22.6-55.6,22.6
		c-17.2,0-33.6-5.4-47.4-15.7L523.2,661.3c-16-11.9-25.4-29.9-25-48.1c0.1-3.1,0.6-5.9,1.2-8.9c0.3-1.6,0.6-3.2,0.9-4.9l2.1-14.9
		l-10.6,10.7c-52.5,52.7-121.6,81.8-194.4,81.8c-37.8,0-74.4-7.7-108.9-22.8c-33.3-14.6-63.2-35.5-88.9-62.2
		c-25.7-26.7-45.9-57.7-60-92.3c-14.6-35.8-22-73.9-22-113.1s7.4-77.3,22-113.1c14.1-34.6,34.3-65.6,60-92.3
		c25.7-26.7,55.6-47.6,88.9-62.2C222.9,103.9,259.5,96.2,297.3,96.2 M297,603.2c115.6,0,209.7-97.9,209.7-218.3
		c0-120.4-94.1-218.3-209.7-218.3S87.3,264.6,87.3,385C87.3,505.3,181.4,603.2,297,603.2 M297.3,91.2
		C140,91.2,12.4,223.4,12.4,386.6S140,681.9,297.3,681.9c77,0,146.7-31.8,197.9-83.2c-0.7,4.8-2,9.2-2.1,14.4
		c-0.4,20.6,10.6,39.9,27,52.2l330.4,246.3c15.1,11.3,32.8,16.7,50.4,16.7c43.2,0,85.5-33,86.6-93.2c0.4-20.6-10.6-39.9-27-52.2
		L630.1,536.7c-14.9-11.1-32.2-16.4-49.5-16.4c-11.1,0-22.2,2.2-32.6,6.4c21.7-41.7,34.1-89.4,34.1-140.2
		C582.1,223.4,454.6,91.2,297.3,91.2L297.3,91.2z M297,598.2c-113,0-204.7-95.5-204.7-213.3c0-117.8,91.6-213.3,204.7-213.3
		S501.7,267.2,501.7,385C501.7,502.8,410,598.2,297,598.2L297,598.2z"/>
</g>
</svg>
