<?xml version="1.0" encoding="utf-8"?>
<!-- Generator: Adobe Illustrator 18.0.0, SVG Export Plug-In . SVG Version: 6.00 Build 0)  -->
<!DOCTYPE svg PUBLIC "-//W3C//DTD SVG 1.1//EN" "http://www.w3.org/Graphics/SVG/1.1/DTD/svg11.dtd">
<svg version="1.1" id="Layer_1" xmlns="http://www.w3.org/2000/svg" xmlns:xlink="http://www.w3.org/1999/xlink" x="0px" y="0px"
	 viewBox="0 0 1000 1000" enable-background="new 0 0 1000 1000" xml:space="preserve">
<g>
	<g>
		<path fill-rule="evenodd" clip-rule="evenodd" d="M665.2,576.1c-27.1,0-51.1,14.1-65.2,35.6L428,525.4c0.8-4.6,1.2-9.3,1.2-14.2
			c0-8-1.2-15.8-3.3-23.1l180.1-69c14.4,16.9,35.5,27.5,59.1,27.5c43.4,0,78.6-36.2,78.6-80.9c0-44.7-35.2-80.9-78.6-80.9
			s-78.6,36.2-78.6,80.9c0,3,0.2,6,0.5,8.9L398.3,447c-13.2-10.4-29.7-16.5-47.6-16.5c-43.4,0-78.6,36.2-78.6,80.8
			c0,44.6,35.2,80.8,78.6,80.8c21.7,0,41.3-9,55.5-23.6L586.6,659c1.1,43.7,35.8,78.8,78.6,78.8c43.4,0,78.6-36.2,78.6-80.9
			C743.8,612.3,708.6,576.1,665.2,576.1z"/>
	</g>
</g>
</svg>
