<?xml version="1.0" encoding="utf-8"?>
<!-- Generator: Adobe Illustrator 18.0.0, SVG Export Plug-In . SVG Version: 6.00 Build 0)  -->
<!DOCTYPE svg PUBLIC "-//W3C//DTD SVG 1.1//EN" "http://www.w3.org/Graphics/SVG/1.1/DTD/svg11.dtd">
<svg version="1.1" id="Layer_1" xmlns="http://www.w3.org/2000/svg" xmlns:xlink="http://www.w3.org/1999/xlink" x="0px" y="0px"
	 viewBox="0 0 1000 1000" enable-background="new 0 0 1000 1000" xml:space="preserve">
<path d="M497.015,225.72c-177.611,0-331.557,103.426-407.205,254.503c75.648,151.078,229.595,254.503,407.205,254.503
	c177.607,0,331.553-103.426,407.205-254.503C828.572,329.147,674.622,225.72,497.015,225.72z M697.794,360.691
	c47.849,30.518,88.394,71.399,118.849,119.533c-30.455,48.134-71.002,89.015-118.851,119.535
	c-60.12,38.349-129.548,58.617-200.777,58.617c-71.229,0-140.657-20.268-200.779-58.619
	c-47.847-30.518-88.392-71.397-118.849-119.533c30.455-48.136,71.002-89.015,118.849-119.533c3.115-1.989,6.263-3.915,9.431-5.807
	c-7.92,21.735-12.255,45.192-12.255,69.667c0,112.446,91.157,203.603,203.603,203.603c112.446,0,203.603-91.157,203.603-203.603
	c0-24.475-4.335-47.932-12.255-69.669C691.529,356.774,694.676,358.702,697.794,360.691z M497.015,399.101
	c0,42.168-34.183,76.351-76.351,76.351c-42.168,0-76.351-34.183-76.351-76.351s34.183-76.351,76.351-76.351
	C462.832,322.75,497.015,356.932,497.015,399.101z"/>
</svg>
